<svg id="Graphic_Elements" data-name="Graphic Elements" xmlns="http://www.w3.org/2000/svg" viewBox="0 0 1200 1200"><g id="layer1"><path id="path4597" d="M203.47,867.57c0-1.09-1.74-1.34-5.4-.75-4.6.73-5.73.39-7.66-2.37-1.49-2.13-1.79-3.7-.88-4.61,2.3-2.31,1.55-3.86-1.41-2.92-2,.63-2.79.25-2.79-1.3,0-2.17,1.54-2.78,5.58-2.24,1.59.22,1.71-.11.49-1.37-.88-.9-3.86-1.65-6.63-1.65-9.46,0-8.47-5.26,3.29-17.51,4.61-4.79,8.8-10.44,9.3-12.55a15.34,15.34,0,0,1,3.52-6.34c4-3.8,3.21-5.51-1.94-4.54-4.51.85-4.5.83,1-2,8.8-4.55,9.14-5.73,1.38-4.79-12.92,1.57-31.4,4.87-35.06,6.26-6.52,2.48-2.34,3,6.73.75,10.91-2.64,24-4.94,24.67-4.32,1,1-12.54,6.1-14.37,5.4-1.07-.41-6.8.58-12.74,2.21s-12.41,2.82-14.4,2.64c-5.1-.45-18.17,1.73-19.07,3.18-1,1.63-7.56,1.55-7.56-.09s.67-1.73,18.52-5.75c7.5-1.69,14-3.65,14.42-4.35s-.68-.94-2.47-.53c-7.36,1.67-24.46,5.3-28.21,6a17.43,17.43,0,0,0-7.67,4.5c-4.72,4.85-18.29,9.36-22,7.29-2.45-1.38-2.39-1.56.88-2.87,1.91-.77,2.54-1.43,1.39-1.47C100.27,821.31,96,823.1,96,825c0,1.17-1.51,1.93-3.84,1.94-2.11,0-7.24,1.6-11.41,3.54s-8.39,3.22-9.38,2.84-2.71.22-3.83,1.34c-3.06,3.06-9.21,2.65-9.21-.61a4,4,0,0,0-2.25-3.5c-1.86-.72-1.94-1.24-.45-3s1.32-2-1.94-1.23c-2.35.59-3.73.37-3.73-.6,0-2.13,8.37-9.93,10.67-9.93a1.74,1.74,0,0,0,1.89-1.54c0-.85-1-1.18-2.1-.74-1.33.51-2.09,0-2.09-1.48,0-1.25.37-1.91.82-1.47,1.29,1.3,9-1.84,9-3.66,0-.9,6-6.86,13.36-13.24s13-11.92,12.64-12.32-5.62-.07-11.62.73c-13.48,1.8-20,.63-22.37-4-2.91-5.75-2-9.12,4.5-17.61,8.26-10.7,23-32.14,23.08-33.55,0-.61,1.91-3.28,4.18-5.93s4.15-5.49,4.18-6.28c0-1.34,6.61-11.94,20-32.3,3-4.52,8-11.35,11.2-15.19,6-7.21,12.74-16.76,15.91-22.51,1-1.82,2.43-3.3,3.18-3.3,1.4,0,4.4-6.08,4.82-9.77.5-4.46,2.28-8.3,3.69-8s5.11-4.7,7.68-10.15a17.42,17.42,0,0,1,4.2-4.63c1.77-1.4,3.21-3.12,3.21-3.83s5.29-8.35,11.75-17l17.79-23.78c3.32-4.44,6.67-8.83,7.43-9.76a218.87,218.87,0,0,0,16.82-24c2.16-3.83,5.61-9.48,7.66-12.55s6.13-10.29,9.06-16,9.11-16.74,13.72-24.41c9.72-16.17,15.37-26.29,23.4-41.86a192.93,192.93,0,0,1,11.85-19.71c3.35-4.7,6.09-9.23,6.09-10.06s3.45-6.58,7.67-12.78,7.7-11.72,7.73-12.26c.11-2.36,16.17-27.37,17.93-27.94,1.17-.38,1.55,0,1,.95s-.31,1.58.51,1.58c1.42,0,2-1.8,1.62-5.05-.1-.86.73-2.31,1.84-3.23,1.58-1.32,2.73-1.29,5.25.13,5.16,2.89,37.34,2.13,63.22-1.49,13.21-1.85,36.28-3.68,56.5-4.49,18.8-.74,40.78-1.65,48.84-2s16.15-.64,18-.62a9.24,9.24,0,0,0,5-1.37c1-.86,4.33-1,8.51-.31,8.05,1.29,96.9,1.13,131-.22,44.12-1.76,53-2.14,68.36-3,38.85-2.09,163.58-3.06,191.13-1.49,10,.57,19.08.93,20.23.8,5.21-.59,92.34.08,100.34.78,4.92.42,10.12,1.4,11.56,2.17a7.66,7.66,0,0,0,5.16.58,11.51,11.51,0,0,1,6.23.59c4.36,1.66,4.92,6.51,1.23,10.64-5.79,6.47-9.82,13.64-9.46,16.85.26,2.42-.19,3.22-1.54,2.7-1.05-.4-1.91,0-1.91.89s-1.68,3.38-3.73,5.52-3.32,4.32-2.81,4.83,4.08-.09,7.93-1.33c6.65-2.15,11.17-2,11.17.42,0,.6.78,1.07,1.74,1,5.16-.19,8,.57,8,2.12,0,1,2.07,1.85,5,2,5.28.27,9,2.45,9,5.3,0,1.08,1.27,1.49,3.38,1.08,4.75-.9,12.72,2,17.55,6.41,2.39,2.19,7.31,4.49,11.88,5.55,9,2.08,16.85,6.34,18.92,10.21,1.45,2.7-.42,10.78-3.43,14.87-2.19,3-10.46,5.82-14.57,5-3.26-.66-4.32,0-7.28,4.58-1.91,2.94-4.53,5.35-5.84,5.36a6.89,6.89,0,0,0-4.15,1.8c-1.45,1.45-1.4,2,.29,3.12,1.85,1.19,1.85,1.5,0,2.71a8.94,8.94,0,0,1-4,1.4c-1,0-5.09,3.17-9,7s-8,6.7-8.94,6.32a1.21,1.21,0,0,0-1.78,1.19c0,2.71-11.66,11.88-16.3,12.82-4.88,1-9,10.13-11.71,25.68-1,5.75-2.58,11.72-3.55,13.25-1.85,2.93-7.66,20.25-13.1,39.07-1.77,6.13-4.45,12.52-5.94,14.19s-2.28,3.74-1.74,4.6,0,3.08-1.25,4.94a16.57,16.57,0,0,0-2.22,7.75,25.76,25.76,0,0,1-2.27,9.15,17.46,17.46,0,0,0-1.55,9.28c1,6.52-3.9,30.77-7.15,35.11-1.13,1.5-3.59,17-5.12,32.17-.95,9.47-4.95,24.21-9.65,35.57-1.74,4.23-3.92,10.19-4.84,13.26s-2.66,8.09-3.85,11.16-2.66,6.84-3.26,8.37a234.24,234.24,0,0,0-9.75,35.58c-1.84,11.2-4.54,15.33-10,15.37-4,0-8.65,2.61-5.29,2.91,3.17.28,3.21.28,7.32-.69,2.87-.67,3.84-.38,3.84,1.17,0,2-4.42,5.23-6.57,4.74a27,27,0,0,0-6,.69c-2.68.52-9,1.31-13.95,1.75s-12.52,1.13-16.74,1.53-7.26.29-6.76-.23c.95-1,17.56-5.27,26.59-6.89,8.53-1.53,7.68-3.64-1.27-3.15-8.53.46-36.67,8.73-38.42,11.29-.68,1-1,.89-1-.32,0-1-.72-1.39-1.66-.81s-5.77,1.2-10.81,1.43c-25.19,1.16-31.22,1.72-32,3-.48.75-2.9,1.8-5.39,2.34-4.31.94-7.73,3.56-4.63,3.56,2.93,0,1.39,5.15-2.1,7s-3.49,2-.7,3c3.35,1.24,3.83,5.07.79,6.24a3.24,3.24,0,0,0-2.09,2.64c0,1.39-1.83,1.66-7.49,1.07-4.82-.5-7.82-.21-8.45.8s.85,1.57,4.69,1.57c3.12,0,5.67.55,5.67,1.23s-6.9.9-15.35.5c-22.21-1-19.64,1.74,3,3.29,13.38.92,18.55,1.77,19,3.15s-.61,1.67-5.47.8c-3.35-.61-12.38-1.19-20.05-1.3-22.74-.32-24.41-.5-24.41-2.7,0-1.32,1.8-2.16,5.23-2.44,2.87-.24-2-.44-11-.44-11.91,0-16.81-.52-18.56-2-1.31-1.09-5-2.48-8.24-3.1s-10.56-2-16.32-3.08c-11.46-2.14-15.62-3.52-14.77-4.9.3-.49-5.71-.92-13.35-1-8.13,0-14.3-.67-14.86-1.53-1.74-2.65-54.3-3.27-65.54-.77s-31,3.76-31,1.94c0-2.41,1.68-2.89,11.24-3.2,4.94-.16,10.24-.81,11.78-1.45,4.74-2-21.95-.12-34.39,2.37-6.41,1.28-12.28,2.79-13,3.35s-4.53.79-8.37.51-7.6-.51-8.37-.52c-3.27,0-16.91,1.72-18.84,2.42A34.43,34.43,0,0,1,556.3,829c-2.76.17-5.9.86-7,1.54-2.2,1.38-5.56,1.76-21.48,2.45a188.76,188.76,0,0,0-31.39,3.76c-3.46.7-9.64,1.61-13.76,2-6.52.65-7.36.45-6.59-1.55S476,835,469,835.84c-4.4.52-8.35,1.5-8.77,2.19s-4.53,1.65-9.12,2.14a115,115,0,0,0-13.2,2.18c-2.66.69-5.37.73-6,.09-1.29-1.29-19.48,2.57-24.29,5.16-3.57,1.93-11.6,2.21-11.6.4,0-.68,1-1.64,2.29-2.12s2-1.19,1.63-1.56-4.81.83-9.86,2.66c-5.87,2.13-9.66,2.85-10.52,2s-3.28-.79-6.74.2c-4.7,1.34-26.2,6-37,8a6.25,6.25,0,0,1-5.58-1.37c-1.47-1.57-2.75-1.73-5.41-.66a31.41,31.41,0,0,1-7,1.78c-24.22,2.62-24.23,2.62-23.24,0,.75-2,.43-2.27-1.51-1.52-1.35.53-5.59,1.81-9.43,2.84s-9.91,2.81-13.49,3.92c-4.66,1.45-6.95,1.6-8,.52s-2-1-3.18.17c-.92.92-4,1.68-6.9,1.68s-5.61.64-6.09,1.41c-.87,1.41-14.21.88-15.71-.62-.42-.42-1.53-.13-2.47.65-2.61,2.16-24.36,3.54-24.36,1.54ZM239.05,859c.47-.76-.16-1.39-1.4-1.39s-1.87.63-1.39,1.39,1.1,1.4,1.39,1.4S238.57,859.78,239.05,859Zm-28.6-1.39c2.76-.89,2.9-1.12.69-1.12a24.9,24.9,0,0,0-6.27,1.12c-2.77.88-2.91,1.12-.7,1.12A25.51,25.51,0,0,0,210.45,857.62Zm63.36-1.46c1.49-1.44-8.28-.11-12.44,1.69-1.78.77-.27.9,4.19.37C269.39,857.76,273.11,856.84,273.81,856.16Zm-76.3.62a2.76,2.76,0,0,0-2.67-.11c-1.12.44-.79.77.84.84,1.47.06,2.3-.27,1.83-.73Zm23.75-.12a11.52,11.52,0,0,0-4.89,0c-1.34.35-.24.64,2.45.64S222.6,857,221.26,856.66Zm124.87-5.38c5.94-1.4,10.81-3.13,10.81-3.85s-1.1-1-2.44-.6c-19.74,5.64-20.11,5.71-21.19,3.95-.85-1.37-1.27-1.31-1.89.31-.93,2.4.31,4.07,2.43,3.27.8-.3,6.33-1.69,12.28-3.08ZM219.51,852c2.25-1,1.79-1.22-2.36-1.3-2.83,0-5.53.53-6,1.3-1,1.68,4.46,1.68,8.37,0Zm56.13.55a2.82,2.82,0,0,0-2.67-.11c-1.12.45-.79.78.84.84,1.47.06,2.29-.27,1.83-.73Zm23.6-1.66a4.84,4.84,0,0,0-3.94.8c-.88.88,0,1.07,2.59.55,2.92-.59,3.27-.94,1.35-1.35Zm-26.72-1.67c.49-.79-.07-1-1.31-.55-2.42.93-2.86,1.93-.86,1.93a3,3,0,0,0,2.17-1.38Zm20.24-.86c0-.3-1.3-.55-2.87-.55s-2.51.6-2.05,1.34C288.58,850.39,292.76,849.72,292.76,848.4Zm28.6-1.28,8.37-2-7.34.72a51.15,51.15,0,0,0-10.46,2c-4.74,1.91,0,1.56,9.43-.69ZM238,845.87c13.24-.36,24.62-1,25.3-1.41s7.73-1.12,15.68-1.57c13.07-.73,48.72-4.23,98.18-9.64,10-1.09,22.21-2.37,27.2-2.84s16.13-2.41,24.77-4.28c14.7-3.2,21.13-4.1,54.76-7.66,7.29-.78,15.13-2,17.44-2.7s12.22-1.32,22.05-1.34,23.63-.79,30.69-1.68,17.23-1.75,22.6-1.89c8.48-.22,40.56-2.63,55.11-4.14,2.68-.28,12.1-1.21,20.92-2.07s21.38-2.15,27.91-2.87,18.93-1.73,27.57-2.24,15.4-1.26,15-1.65,0-1.55.85-2.58c1.26-1.51.49-1.87-4-1.87-3,0-9.57-.4-14.48-.89-11.37-1.14-10,.62,1.73,2.27,8,1.12,7.44,1.18-5.07.66-7.67-.32-21.17-.71-30-.88s-12.44-.52-8-.8c4.77-.29,7.72-1.06,7.22-1.86s-9.42-1.08-23.41-.63c-50.65,1.65-69.81,1.88-65.81.8,2.3-.62,8.89-1.21,14.65-1.3s18.62-.64,28.6-1.21l18.13-1-12.55-.7c-12.91-.72-52.08.35-79.88,2.18-11,.73-15.69.58-15.69-.47,0-.84,1.41-1.79,3.14-2.12s.31-.64-3.14-.69-5.49.24-4.54.63c5.31,2.14-1.65,2.94-33.48,3.84-19.38.56-37.43,1.24-40.11,1.52s-13.67.93-24.42,1.44c-19,.9-34.8,3-25.23,3.3,7.84.27,1.92,2.2-7.31,2.39-10.5.21-12.21-.3-10-3,1.28-1.53-1.63-1.82-16.67-1.62q-25.1.33-15.78,2.77c1.35.35-2,.64-7.32.64-8,0-8.8-.19-4.52-1,6.82-1.32,8.07-2.64,2.24-2.36-4.27.2-4.58-.09-4.64-4.32-.06-4.47-.74-5.24-3.78-4.22-1.12.37-1.08,1.42.16,3.74.95,1.77,1.2,3.7.55,4.3-2,1.85-11.64,3.07-11.64,1.47a1.46,1.46,0,0,0-1.47-1.45c-.82,0-1.09.62-.62,1.39s.2,1.4-.61,1.4a1.44,1.44,0,0,1-1.48-1.4,1.35,1.35,0,0,0-1.32-1.39c-.72,0-1.06,1.41-.75,3.14.55,3,.5,3-1.47.43s-2-2.68-2,.06c0,2.38-1.53,3-10.82,4.48-11.11,1.76-14.83,2.44-35.22,6.41-19,3.7-24.69,4.68-45.35,7.85-25.33,3.88-26.14,4.14-28.45,9a60.41,60.41,0,0,1-5.75,9,34.16,34.16,0,0,0-4.74,7.92c-.83,2.66-.36,3.11,3.65,3.53a115.46,115.46,0,0,0,13,.12c4.6-.19,19.21-.64,32.45-1Zm60.65-36.48c1.16-1.16,22-4.71,26.88-4.58,2.31.07-1.46,1.28-8.37,2.69C304.5,810.1,297.21,810.85,298.66,809.39Zm31.77-4.5c0-1.33,22-3.85,23.21-2.66.35.35-3,1-7.45,1.56s-9.82,1.26-11.93,1.68-3.83.15-3.83-.58Zm51.62-4.47a1.44,1.44,0,0,1,1.48-1.4c.81,0,1.09.63.61,1.4s-1.14,1.39-1.48,1.39S382.05,801.18,382.05,800.42Zm-53.37-.93a5.48,5.48,0,0,1,3.49,0c1,.39.18.71-1.74.71s-2.7-.32-1.75-.71Zm388.91-3.26c-.47-.77.15-1.39,1.4-1.39s1.86.62,1.39,1.39-1.1,1.4-1.39,1.4S718.06,797,717.59,796.23Zm-212.11-1.45c-.45-.74.63-1.36,2.4-1.38s18.29-.41,36.7-.86,33.06-.36,32.53.19-9.63,1.24-20.23,1.54-26.31.83-34.92,1.19c-9.26.39-16,.12-16.47-.68ZM336,845.76c1.42-1.7,1.35-2.09-.37-2.09a3.41,3.41,0,0,0-2.92,2.09c-.44,1.15-.27,2.09.38,2.09S335.05,846.91,336,845.76Zm73.13-2.23c4-1.12,4.94-1.84,3.48-2.76a11.28,11.28,0,0,0-5.45-1.08l-3.49.17,3.49.69c3.34.66,3.29.76-1.4,2.49-6,2.24-4,2.53,3.37.49Zm-13.25-2.15c1.4-1.21-5-.32-6.86,1-1.53,1-1,1.16,2.09.48A22.54,22.54,0,0,0,395.88,841.38Zm33.29-2c4.82-.91,8.44-2,8-2.4-1.1-1.1-20.28,2.78-21.21,4.29-.45.73.36,1,1.81.54s6.56-1.51,11.37-2.43Zm-53.08.66a2.84,2.84,0,0,0-2.68-.11c-1.11.45-.78.78.85.85,1.47.06,2.29-.27,1.83-.74Zm15.6-2.83c1.41-1.23-7.76-.32-9.65,1-1.5,1-.51,1.16,3.49.49A28.66,28.66,0,0,0,391.69,837.2Zm5.7-.51a1.35,1.35,0,0,0-1.31-1.39,3,3,0,0,0-2.18,1.39c-.47.77.12,1.4,1.32,1.4S397.39,837.46,397.39,836.69Zm34.77-2.29c1.4-1.21-5-.32-6.86,1-1.53,1-1,1.16,2.09.48A22.13,22.13,0,0,0,432.16,834.4Zm10.9,1.45a2.78,2.78,0,0,0-2.68-.11c-1.11.44-.78.77.84.84,1.47.06,2.3-.27,1.84-.73Zm393.6-1.28c.37-.37-3-.63-7.58-.57-5.7.07-7.39.45-5.47,1.24C826.35,836.36,835.33,835.9,836.66,834.57Zm-385.21-.24a11.47,11.47,0,0,0-4.88,0c-1.34.36-.25.64,2.44.64S452.8,834.69,451.45,834.33Zm37.32-.43c2.38-1,2.18-1.2-1.39-1.2a21.51,21.51,0,0,0-7,1.2c-2.38,1-2.17,1.2,1.4,1.2A21.39,21.39,0,0,0,488.77,833.9Zm316,0a1.35,1.35,0,0,0-1.32-1.39,3,3,0,0,0-2.17,1.39c-.48.77.11,1.4,1.31,1.4S804.79,834.67,804.79,833.9Zm9.41.43a11.47,11.47,0,0,0-4.88,0c-1.34.36-.24.64,2.44.64S815.55,834.69,814.2,834.33Zm-367.57-4.7c13.84-1.65,17.15-2.37,16-3.48s-30.94,3.77-32.48,5.34q-1.43,1.44,1.09.55c1.37-.48,8.27-1.57,15.34-2.41Zm60.61.64a2.76,2.76,0,0,0-2.67-.11c-1.11.44-.78.77.84.84,1.47.06,2.3-.27,1.83-.73Zm312.9-.73c0-1.24-15.85-2.13-22.32-1.26-3.37.46-1.43.91,6.28,1.44,14.57,1,16,1,16-.18Zm15.23,1.06c-1.35-1.19-13.84-1.83-13.84-.71,0,.67,3.25,1.22,7.21,1.22S835.69,830.88,835.37,830.6Zm17.49-2.38c2.15-2.1-2.33-1.43-6.21.93l-3.49,2.12,4.19-.88c2.3-.48,4.78-1.46,5.51-2.17Zm-327.8.1c.48-.77-.43-1.39-2-1.39s-2.87.62-2.87,1.39.91,1.4,2,1.4A3.67,3.67,0,0,0,525.06,828.32Zm264.74.41a20,20,0,0,0-6.28,0c-1.73.33-.32.61,3.14.61s4.86-.28,3.14-.61Zm32.75-2.65a2.81,2.81,0,0,0-2.67-.11c-1.11.45-.78.78.84.85s2.3-.27,1.83-.74Zm-745.3-2.81c-1.25-1.24-2.61-1.91-3-1.49-1.25,1.24.88,3.75,3.17,3.75C79.22,825.53,79.2,825.22,77.25,823.27Zm676.63.86c.47-.76.2-1.39-.62-1.39a1.44,1.44,0,0,0-1.47,1.39c0,.77.27,1.4.61,1.4S753.4,824.9,753.88,824.13Zm14.65.23c0-.64-2.83-1.27-6.28-1.41s-6.28.4-6.28,1.17,2.83,1.41,6.28,1.41S768.53,825,768.53,824.36Zm-261-2.45c.32-.31-1.72-.57-4.53-.57s-5.12.58-5.12,1.28C497.86,823.8,506.21,823.19,507.51,821.91Zm289.94,1.21a51.24,51.24,0,0,0-9.76,0c-2.48.31-.11.56,5.26.55s7.4-.25,4.5-.56Zm29.68-1.23c0-.3-2-.5-4.53-.45-3.69.08-4,.31-1.75,1.2,2.56,1,6.28.57,6.28-.75Zm6.6,1.4a2.82,2.82,0,0,0-2.67-.11c-1.12.45-.79.78.84.85,1.47.06,2.29-.27,1.83-.74ZM560.28,821.9a2.76,2.76,0,0,0-2.67-.11c-1.12.44-.79.77.84.84,1.47.06,2.29-.27,1.83-.73Zm-44.64-1.4a2.84,2.84,0,0,0-2.68-.11c-1.11.45-.78.78.84.84s2.3-.26,1.84-.73Zm57.92-.08a5.32,5.32,0,0,0-3.48,0c-1,.39-.18.7,1.74.7s2.7-.31,1.74-.7Zm196.7-.52c-3-1.21-39.34-.47-40.64.82-.34.34,9.38.58,21.59.54Q773.4,821.17,770.26,819.9Zm40.13.05a1.4,1.4,0,1,0-1.4,1.39A1.4,1.4,0,0,0,810.39,820Zm-725.88-.84a2.76,2.76,0,0,0-2.67-.11c-1.12.44-.79.77.84.84,1.47.06,2.3-.27,1.83-.73ZM787,819a5.48,5.48,0,0,0-3.49,0c-1,.39-.18.71,1.74.71s2.7-.32,1.74-.71Zm10.81.31c0-.34-.63-1-1.4-1.47s-1.39-.2-1.39.61a1.45,1.45,0,0,0,1.39,1.48C797.19,820,797.82,819.67,797.82,819.33Zm5.2-.23a2.82,2.82,0,0,0-2.67-.11c-1.12.45-.79.78.84.85,1.47.06,2.29-.27,1.83-.73Zm28.28-.55a1.44,1.44,0,0,0-1.47-1.39c-.82,0-1.09.63-.62,1.39s1.14,1.4,1.48,1.4S831.3,819.32,831.3,818.55Zm-127.29-1a15.1,15.1,0,0,0-5.58,0c-1.74.33-.65.62,2.42.63S705.34,817.94,704,817.59Zm13.26,0a7.91,7.91,0,0,0-4.18-.06c-1.36.36-.59.67,1.72.7s3.41-.26,2.46-.64Zm19.16-.24c0-.64-1.88-.88-4.18-.54s-4.19.86-4.19,1.15,1.88.54,4.19.54S736.43,818,736.43,817.4Zm109.84.31a2.81,2.81,0,0,0-2.67-.11c-1.11.44-.78.77.84.84,1.47.06,2.3-.27,1.83-.73Zm-635.13-2c2.5-1.07,2.39-1.21-1-1.3-2.06-.05-4.14.53-4.62,1.3-1,1.67,1.71,1.67,5.58,0Zm-97.42-2.22c4.2-1.22,7.35-2.52,7-2.87-.73-.74-16.3,3.56-16.3,4.49s1.17.74,9.31-1.62Zm114.17.83c2.69-1.16,2.68-1.21-.27-1.3-1.68-.06-3.44.53-3.92,1.3C222.68,816,224.05,816,227.89,814.37Zm-9.09-1a8.74,8.74,0,0,0-1.38-3.14c-1.09-1.69-1.35-1.49-1.37,1.05,0,1.72.61,3.14,1.37,3.14S218.81,813.9,218.8,813.32Zm446.47-.05c0-1.58-5.37-1.76-6.33-.21-.44.72.8,1.31,2.76,1.31S665.27,813.87,665.27,813.27Zm59.17-.1c.41-.65-.81-.89-2.7-.53s-3.45.9-3.45,1.19C718.29,814.91,723.73,814.33,724.44,813.17Zm16.75-1.4c.31-.49-3-.65-7.33-.37-4.76.32-6.88.9-5.35,1.46C731.39,813.9,740.35,813.13,741.19,811.77Zm-666.07-.15c0-.74-.94-1-2.09-.55s-2.1,1-2.1,1.35.95.55,2.1.55S75.12,812.36,75.12,811.62Zm169.51.19c3.07-.55,5-1.35,4.19-1.78s-5.16,0-9.77.9C229.93,812.76,234.94,813.55,244.63,811.81Zm385.38.32a2.79,2.79,0,0,0-2.67-.11c-1.11.44-.78.77.84.84s2.3-.27,1.83-.73Zm49.91-.55c-3.81-1.64-4.88-1.64-4.88,0,0,.76,1.72,1.35,3.83,1.29C682.27,812.79,682.39,812.64,679.92,811.58Zm-35.91-1a15.3,15.3,0,0,0-5.58,0c-1.73.33-.64.62,2.43.63s4.49-.25,3.15-.6Zm64.51-1.3c0-.29-1.57-.53-3.49-.53s-3.48.54-3.48,1.2,1.57.9,3.48.53S708.52,809.62,708.52,809.32Zm106.77-.26c-.43-.43-1.56,0-2.5,1-1.37,1.38-1.21,1.54.78.78C814.94,810.27,815.72,809.49,815.29,809.06Zm37.63,1.12c.48-.77.24-1.39-.53-1.39a3.05,3.05,0,0,0-2.26,1.39c-.47.77-.23,1.4.54,1.4A3,3,0,0,0,852.92,810.18Zm-726.19-1.92a5.78,5.78,0,0,0-2.1-3.66c-1.31-1.09-2.09-1.19-2.09-.25a3.17,3.17,0,0,0,1.42,2.36,1.59,1.59,0,0,1,.61,2.17c-.44.72-.13,1.3.68,1.3a1.75,1.75,0,0,0,1.48-1.92Zm116.69-.08c6-1.09,14.14-2.39,18-2.88s7.95-1.5,9.07-2.25c2.81-1.89-10.36-.28-29.8,3.65-17.13,3.47-14.88,4.69,2.72,1.48Zm411.72,1a11.47,11.47,0,0,0-4.88,0c-1.34.35-.25.64,2.44.64S656.48,809.57,655.14,809.22Zm9.42-.43c2.69-1.16,2.68-1.21-.27-1.3-1.68-.06-3.44.53-3.92,1.3C659.35,810.44,660.72,810.44,664.56,808.79Zm54.73.55a2.79,2.79,0,0,0-2.67-.11c-1.12.44-.79.77.84.84,1.47.06,2.29-.27,1.83-.73Zm5.58,0a2.79,2.79,0,0,0-2.67-.11c-1.12.44-.79.77.84.84,1.47.06,2.3-.27,1.83-.73Zm5.58,0a2.79,2.79,0,0,0-2.67-.11c-1.12.44-.78.77.84.84s2.3-.27,1.83-.73Zm90.69,0a2.81,2.81,0,0,0-2.68-.11c-1.11.44-.78.77.85.84,1.47.06,2.29-.27,1.83-.73Zm-605.94-1.4c3.52-1.35,2.56-2.64-2-2.64-2.3,0-4.47.78-4.84,1.74C207.69,808.9,211.42,809.39,215.2,807.94Zm461.57-.14a20,20,0,0,0-6.28,0c-1.72.33-.31.61,3.14.61s4.87-.28,3.14-.61Zm59.27.14a2.84,2.84,0,0,0-2.68-.11c-1.11.45-.78.78.85.85,1.47.06,2.29-.27,1.83-.74Zm13.28-.08a5.35,5.35,0,0,0-3.49,0c-1,.39-.17.7,1.75.7s2.7-.31,1.74-.7ZM104.4,806c0-1.63-1.08-1.63-4.89,0-2.47,1.07-2.35,1.21,1,1.3C102.67,807.35,104.4,806.76,104.4,806Zm30.31.56a2.76,2.76,0,0,0-2.67-.11c-1.12.44-.79.77.84.84,1.47.06,2.29-.27,1.83-.73ZM233.1,806c1.34,0,2.44-.72,2.44-1.58,0-1.93-8.3-.51-10.42,1.78-1,1.13-.48,1.32,2,.69a31.52,31.52,0,0,1,5.93-.89Zm472.73-.4c-.17-1.67-2.09-1.34-2.69.45-.3.93.2,1.43,1.12,1.12S705.89,806.17,705.83,805.61Zm53.29.86a8.06,8.06,0,0,0-4.19-.05c-1.36.36-.58.67,1.72.7s3.41-.26,2.47-.65ZM870.72,805c-.82-2.15-.47-2.16-6.13.29l-4.7,2,5.75-.29c3.93-.2,5.53-.84,5.08-2Zm-145.8.09a15.08,15.08,0,0,0-5.58,0c-1.73.33-.64.62,2.43.63s4.49-.25,3.15-.6Zm97.34-.38a2.46,2.46,0,0,0-2.87-.55c-2.89,1.11-2.55,1.89.82,1.89C821.79,806,822.71,805.39,822.26,804.66Zm-580.11-.9a2.78,2.78,0,0,0-2.68-.11c-1.11.44-.78.77.85.84,1.47.06,2.29-.27,1.83-.73Zm51.08-1.3c3.71-.47,6.42-1.19,6-1.6-1.19-1.2-20.44,1.11-20.44,2.45,0,.67,1.73,1,3.84.61s6.88-1,10.59-1.46Zm441.8.74a1.44,1.44,0,0,0-1.48-1.39c-.81,0-1.09.63-.61,1.39s1.14,1.4,1.48,1.4S735,804,735,803.2Zm5.58,0c0-.76-1.1-1.38-2.44-1.37-2.09,0-2.14.22-.35,1.37C740.45,804.91,740.61,804.91,740.61,803.2Zm25.26-.27c-4.1-.91-7.11-.89-9.07.06-2.31,1.12-1,1.41,6.13,1.37l9.07-.06Zm133.79-1.09,10.46-2.64-9.06.82c-9.85.88-21.86,4.35-15.35,4.42C887.63,804.47,893.91,803.3,899.66,801.84Zm-740.49.44a5.35,5.35,0,0,0-3.49,0c-1,.39-.17.7,1.75.7s2.7-.31,1.74-.7Zm9.42.39c0-.29-1.55-.83-3.45-1.19s-3.11-.12-2.71.53C163.15,803.17,168.59,803.75,168.59,802.67ZM276,802.59c0-.34-.63-1-1.4-1.48s-1.39-.2-1.39.62a1.43,1.43,0,0,0,1.39,1.47C275.39,803.2,276,802.93,276,802.59Zm520.39.08c0-1.24-5.64-1.89-6.36-.73-.43.7.83,1.26,2.79,1.26S796.41,803,796.41,802.67ZM173.79,801a2.76,2.76,0,0,0-2.67-.11c-1.12.44-.79.77.84.84,1.47.06,2.29-.27,1.83-.73Zm92.81-1.29c4.41-.47,8-1.29,8-1.81-.06-2.61-2.3-4-4.86-2.94s-2.5,1.13.69,1.39c4.7.38-8.78,2.42-17,2.58-3.6.06-7,.82-7.51,1.67-.67,1.09,1,1.32,5.85.76,3.74-.44,10.42-1.18,14.83-1.65Zm606.55.73c1.64-1,1.28-1.35-1.66-1.37-2.06,0-4.14.61-4.61,1.37-1.1,1.79,3.52,1.79,6.27,0Zm15.35-1.74c2.13-.84,2.79-1.64,1.69-2s-4,.36-6.62,1.62C874.94,802.35,878.43,802.64,888.5,798.67Zm-682.56.79a15.14,15.14,0,0,0-5.59,0c-1.73.33-.64.62,2.43.63s4.49-.25,3.16-.6Zm84.49-3.4a33.4,33.4,0,0,1,3.95,0c.5.07,1.63-.74,2.5-1.79,1.33-1.6.61-1.7-4.4-.58-3.29.74-6.2,1.94-6.46,2.67a1.12,1.12,0,0,1-1.74.53c-.7-.43-1.28-.17-1.28.58,0,2.16,3.44,2.76,3.94.68.25-1,1.82-2,3.49-2.05Zm17.34,3.39a11.52,11.52,0,0,0-4.89,0c-1.34.35-.24.64,2.45.64S309.11,799.8,307.77,799.45Zm609.65.12a2.81,2.81,0,0,0-2.67-.11c-1.11.45-.78.78.84.84,1.47.07,2.3-.26,1.83-.73Zm-761.39-2c0-1.59-2-1.59-7,0-3.12,1-2.93,1.14,1.74,1.26C153.68,799,156,798.39,156,797.62Zm13.26-1.77q1.4-1.4-2.1-.53a34.29,34.29,0,0,1-6.71.89c-1.77,0-2.84.63-2.38,1.37C159.07,799.16,167.25,797.9,169.29,795.85Zm6.78,1.08c.55-1.45-.1-2.1-2.12-2.1-2.43,0-2.63.35-1.18,2.1a9,9,0,0,0,2.12,2.09C175.1,799,175.63,798.08,176.07,796.93Zm74.93-.14c7.08-1.37,3.51-2.26-4.86-1.21-4.29.53-7.79,1.58-7.79,2.32s1.87,1,4.18.53Zm42.11,1.31a5.35,5.35,0,0,0-3.49,0c-1,.38-.17.7,1.74.7s2.71-.32,1.75-.7Zm434.94-.48a1.4,1.4,0,1,0-1.39,1.4A1.4,1.4,0,0,0,728.05,797.62Zm207.18-1.5c2.19-.87,1.73-1.11-2.09-1.09a32.05,32.05,0,0,0-9.77,2l-4.88,2,7-.86a53.46,53.46,0,0,0,9.76-2Zm-819,.11c.47-.77.23-1.4-.53-1.4a3,3,0,0,0-2.26,1.4c-.47.77-.23,1.39.53,1.39A3,3,0,0,0,116.27,796.23Zm797.33.07c5.86-1,5.95-1.12,1.4-1.21a56.91,56.91,0,0,0-10.46,1.06c-4.82,1-5,1.16-1.4,1.21A70.32,70.32,0,0,0,913.6,796.3Zm-765.94-1.47c1.69-1.09,1.49-1.35-1-1.37-1.72,0-3.14.61-3.14,1.37C143.47,796.58,145,796.58,147.66,794.83Zm47.06.56a2.78,2.78,0,0,0-2.68-.11c-1.11.44-.78.77.85.84,1.47.06,2.29-.27,1.83-.73Zm8.37,0a2.78,2.78,0,0,0-2.68-.11c-1.11.44-.78.77.85.84,1.47.06,2.29-.27,1.83-.73Zm109.2-.75c0-.49-2.2-1.15-4.88-1.47-3.06-.35-4.89,0-4.89,1s2.09,1.54,4.89,1.47S312.29,795.13,312.29,794.64Zm428,.63a11.52,11.52,0,0,0-4.89,0c-1.34.35-.24.63,2.44.63S741.6,795.62,740.26,795.27Zm-587-3.23c-1.3-.81-1.25-1.21.2-1.73,1.05-.37,1.57-1,1.16-1.49-1.46-1.61-4.21,1.41-3.34,3.68.49,1.27,1.52,1.93,2.28,1.45s.78-1.25-.3-1.91Zm96.16.51c.32-.28-2.35-.51-5.93-.51s-6.51.57-6.51,1.27C236.94,794.44,248,793.77,249.38,792.55Zm67.08,1a3,3,0,0,0-1.39-2.17c-.77-.48-1.4.11-1.4,1.31s.63,2.17,1.4,2.17A1.35,1.35,0,0,0,316.46,793.52Zm87.2-.09c-.48-.78-2.48-1.12-4.44-.76-5.64,1-5.58,2.16.11,2.16C402.46,794.83,404.18,794.28,403.66,793.43Zm352.54-1.69c-1-1-1.66-1.08-1.66-.21,0,1.86,1.66,3.51,2.59,2.58.39-.39,0-1.46-.93-2.37Zm23.34.86c1.19-1.14-13.24-.31-15.93.92-1.84.84.3,1,6.28.46C774.88,793.53,779.22,792.91,779.54,792.6Zm18.26,0c0-.3-1.92-.54-4.27-.54s-3.93.55-3.52,1.21C790.7,794.37,797.8,793.76,797.8,792.58Zm-681.31-1.24c0-1.15-.52-2.09-1.16-2.09-1.4,0-1.54,2-.24,3.26s1.4,1.21,1.4-1.17Zm85.57.83c0-.69-1.26-.93-2.79-.53s-2.79,1-2.79,1.26,1.25.54,2.79.54S202.06,792.87,202.06,792.17Zm33.48,0c0-.69-1.25-.93-2.79-.53s-2.79,1-2.79,1.26,1.26.54,2.79.54S235.54,792.87,235.54,792.17Zm35.62-1.25c-.43-.43-1.56,0-2.51,1-1.36,1.38-1.2,1.54.79.78C270.81,792.13,271.59,791.35,271.16,790.92Zm106.92,1.13a19.47,19.47,0,0,0-8.37,0c-2.82.86-1.7,1.12,4.65,1.1,7.12,0,7.68-.18,3.72-1.12ZM389,792c0-.78,3.85-1.4,8.72-1.41s9.66-.65,10.81-1.41q2.73-1.8-22,.35c-1.91.16-2.27,1.48-.81,2.94S389,793.62,389,792Zm20.55.56a2.76,2.76,0,0,0-2.67-.11c-1.12.44-.79.77.84.84,1.47.06,2.29-.27,1.83-.73Zm272.79-.15a20,20,0,0,0-6.28,0c-1.72.34-.31.61,3.14.61s4.87-.27,3.14-.61Zm10.47,0a11.52,11.52,0,0,0-4.89,0c-1.34.35-.24.64,2.45.64S694.16,792.82,692.82,792.47Zm224.64-.7c-.86-2.58-3.43-2.87-4.34-.49-.58,1.51,0,2.15,2,2.15,1.59,0,2.62-.74,2.31-1.66Zm-565.1-.58a2.84,2.84,0,0,0-2.68-.11c-1.11.45-.78.78.85.84,1.47.06,2.29-.26,1.83-.73Zm98-.55c1.86-1.2,1.86-1.34,0-1.24a29.13,29.13,0,0,0-5.58,1.24l-3.49,1.12,3.49.11a11.49,11.49,0,0,0,5.58-1.23Zm370.41,0c.48-.77-.12-1.4-1.31-1.4s-2.18.63-2.18,1.4a1.35,1.35,0,0,0,1.32,1.39A3,3,0,0,0,820.81,790.64Zm-661.31-1.4c.48-.76.24-1.39-.53-1.39a3.08,3.08,0,0,0-2.26,1.39c-.47.77-.23,1.4.53,1.4A3,3,0,0,0,159.5,789.24Zm25.81,0a1.44,1.44,0,0,0-1.47-1.39c-.82,0-1.09.63-.62,1.39s1.14,1.4,1.48,1.4S185.31,790,185.31,789.24Zm21.95.56a2.78,2.78,0,0,0-2.68-.11c-1.11.44-.78.77.85.84,1.47.06,2.29-.27,1.83-.73Zm85.32-2.3c-.12-2.39-.31-2.55-.8-.68-.36,1.35-1.18,2.13-1.84,1.72a1.56,1.56,0,0,0-2.07.68c-.48.79.41,1.42,2,1.42,2.1,0,2.83-.85,2.71-3.14Zm7.35,0c-1.44-1.44-4.4-.31-4.4,1.69,0,.65,1.3.84,2.89.43,1.88-.49,2.4-1.23,1.51-2.12ZM457,789.79a2.84,2.84,0,0,0-2.68-.11c-1.11.45-.78.78.84.84,1.47.07,2.3-.26,1.84-.73Zm246.31-.07a8,8,0,0,0-4.19-.05c-1.36.35-.58.66,1.72.69s3.41-.26,2.47-.64Zm233.84-1.24c.34-.35-2-.64-5.19-.64s-5.81.55-5.81,1.21c0,1.18,9.75.67,11-.57Zm-652.49-1.77c.54-.55-4.79-.79-11.86-.54s-13.48,1.12-14.25,1.93c-1.59,1.7,24.4.31,26.11-1.39Zm27.23,1.69a2.78,2.78,0,0,0-2.68-.11c-1.11.44-.78.77.85.84,1.47.06,2.29-.27,1.83-.73ZM433,787.84a3.08,3.08,0,0,0-2.26-1.39c-.77,0-1,.63-.53,1.39a3,3,0,0,0,2.25,1.4C433.18,789.24,433.42,788.61,433,787.84ZM796.4,787c0-.3-1.88-.54-4.19-.54S788,787,788,787.6s1.88.88,4.18.54S796.4,787.28,796.4,787Zm11.16.85c2.84-.91,2.26-1.14-3.14-1.25-3.64-.08-6.63.49-6.63,1.25C797.79,789.46,802.52,789.46,807.56,787.84Zm33.49,0c0-.76-.28-1.39-.62-1.39s-1,.63-1.48,1.39-.19,1.4.62,1.4A1.45,1.45,0,0,0,841.05,787.84Zm10.24-.45c.5.51.92.19.92-.71a1.52,1.52,0,0,0-1.35-1.63c-.75,0-1-1.1-.61-2.44s-.21-.87-1.39,1c-2.66,4.34-2.83,6.42-.36,4.37,1-.86,2.28-1.14,2.79-.64Zm30.91-3c3.84-.34,9.49-1.06,12.56-1.61a29.62,29.62,0,0,1,6.83-.67c.69.18,13.25-1,27.91-2.56,41.39-4.49,38.5-3.92,38.5-7.63a27.54,27.54,0,0,1,2.1-8.24c2.38-5.7,2.74-9.84.74-8.61-.75.46-2.13,4.58-3.07,9.15-1.66,8-3.95,11.24-3.95,5.53,0-3.83-1.94-3.51-4.19.69-1,1.92-2.73,3.49-3.79,3.49-2,0,3.48-8.86,9.11-14.8a46.78,46.78,0,0,0,5.87-9.07,53,53,0,0,1,5.55-8.91c1.42-1.61,2.75-5.92,3.13-10.17s1.56-8.08,2.81-9.07,3.12-5.68,4.32-10.55,2.74-9.57,3.42-10.46c2-2.6,3.08-6.49,1.8-6.49-.65,0-2.54,3.16-4.2,7s-3.65,6.63-4.42,6.16.54-4.39,3.38-9.56c4.47-8.13,7.68-17.57,6-17.57-1.25,0-7.56,7.19-13.77,15.69-3.23,4.41-6.79,8-7.91,8s-3.82,1.69-6,3.75c-2.74,2.63-3.91,3.12-3.91,1.66,0-1.15,1.86-3.88,4.14-6.06,3.68-3.53,4.67-7.62,1.34-5.57-2.71,1.68-1.14-2.28,2.54-6.4,2.74-3.07,4.56-4,6.36-3.33a2.48,2.48,0,0,1,1.75,3.23c-.42,1.24,1.72-.54,4.75-4s5.27-6.47,5-6.76-2.45,1.56-4.78,4.13-4.27,3.84-4.29,2.84-.67-1.44-1.43-1c-2.27,1.41-1.59-1.82.79-3.78,14.06-11.52,22.74-23.74,18.68-26.25a3.44,3.44,0,0,0-3.16-.39c-.7.42-.42,1.3.6,1.93,1.46.9,1.07,2-1.77,5.06a81.83,81.83,0,0,0-7.59,10.18c-4.84,7.7-6.12,4.8-2.07-4.67,3.52-8.19,10-16.49,12.26-15.63,3.72,1.42,12.15-16.67,8.74-18.78-1.48-.91-.19-7,1.48-7,.63,0,2.15,1,3.39,2.26s2.7,1.81,3.24,1.28-.06-1.74-1.33-2.67c-3.44-2.52-3.67-6.55-.48-8.36,1.54-.87,3.09-1.77,3.45-2s.73-4.19.84-8.8c.13-6.2,1-9.43,3.22-12.48,1.67-2.26,2.39-4.11,1.6-4.11-2,0-1.78-5.19.31-6.16,1.4-.66,1.4-1,0-1.63-2.94-1.37-2-4.57,2.09-6.76l3.84-2.08-3.84-.06c-2.11,0-3.83-.68-3.83-1.45a1.4,1.4,0,0,1,1.39-1.4c.77,0,1.4-1.21,1.4-2.69a4.09,4.09,0,0,1,2.79-3.58c2.61-.83,3.28-2.07,2.44-4.51-.19-.56-1.29-1-2.44-1.05-3.42,0-2.38-4.17,1.18-4.67,2.63-.38,3.09-1.06,2.37-3.49-3-9.87-2.62-13.33,1.65-17.32,2.3-2.15,4.65-5.46,5.24-7.36a19.14,19.14,0,0,1,2.46-5.2c1-1.19.81-2.45-.46-4a11.94,11.94,0,0,1-2.26-4.94c-.47-3.08,4.83-11,7.37-11,1.65,0,4-4.07,2.9-5.13-.84-.84-7.53,2-8.54,3.64a4.28,4.28,0,0,1-3.35,1.49c-1.34,0-4.39,1.41-6.77,3.14s-5.69,4.08-7.37,5.23-4.39,3.23-6,4.62a64.35,64.35,0,0,1-8.24,5.49c-5,2.83-6.82,5.23-3.88,5.23,1.53,0,19.82-12.65,24.65-17,1.66-1.51,4.14-2.52,5.53-2.26,2.24.43,2.14.83-.93,3.69-1.88,1.76-9.13,7.4-16.1,12.54-15.63,11.53-33.11,26.82-41.14,36a64.36,64.36,0,0,1-8,7.43c-2.44,1.84-4.44,4-4.44,4.75s1.15.37,2.55-.9,3-2.31,3.49-2.31c1.64,0,1,3.12-1,4.73-3.36,2.74-25.58,33.52-26.65,36.91-.89,2.84-.65,3.16,1.78,2.39,1.55-.49,3.14-.37,3.54.28,1.22,2-1.24,4.59-5.39,5.7-2.18.58-4.4,2-4.94,3.08s-2.31,4.75-3.94,8.08-3,7.2-3,8.59c0,3-10.37,25.09-15,31.93-4.74,7.07-4.21,8.29,3.46,8,6.3-.26,24,1.31,30.69,2.73,1.73.36,3.14,1.59,3.14,2.73s-.21,2.07-.47,2.07-6.69-.94-14.3-2.09a187.91,187.91,0,0,0-21.52-2.09l-7.7,0-3.38,7.33a93.61,93.61,0,0,1-6.26,11.43c-1.58,2.26-4.76,7.6-7.06,11.86s-5,7.75-6,7.75a4.87,4.87,0,0,0-3.27,2.09c-1.6,2.26-1.61,2.36.87-4.88.53-1.54-1,.28-3.47,4-3.31,5.09-4,7.09-2.68,7.9s1.24,1.87-.58,4.64a22.15,22.15,0,0,0-2.33,4.12c0,.31,4.2-1.55,9.34-4.14,9.3-4.67,15.77-6,15.77-3.24,0,.8-3,4.66-6.62,8.58l-6.63,7.13,8-.81c4.41-.44,10.06-1.86,12.55-3.15,4.58-2.36,17-6.18,20.23-6.21,2.41,0,2.19,3.46-.35,5.56-3.93,3.26-2.1,4.15,7.9,3.82,7-.23,10.17.19,10.58,1.42.84,2.48,3.4,2.15,7.38-.95,10.58-8.26,16.87-12.66,18.1-12.66a1.36,1.36,0,0,0,1.38-1.34c0-.74,1.26-2,2.79-2.84,6.14-3.29,2.37,1.51-5.54,7.06-4.58,3.21-8.68,7-9.12,8.31-1,3.07-21.61,20.31-21.61,18.06,0-.9,1.51-2.83,3.35-4.28,3.44-2.7,3.59-7.17.31-9.29-.86-.57-7.61-1-15-1.05-8.93,0-14.14-.62-15.6-1.83-1.81-1.5-3-1.41-6.73.54-7.76,4-26.35,1.26-26.35-3.91,0-.76,1.72-1.05,3.81-.65,3,.57,4.72-.22,8-3.66,5.58-5.85,2.22-6.62-7.45-1.72-7,3.56-12.73,11.37-10.69,14.67.5.8.36,1.46-.31,1.46-2,0-5.92,9.52-5.92,14.35,0,2.47-1.26,7.79-2.79,11.83a61,61,0,0,0-2.79,8.46c0,.61,4.55.27,10.11-.76s13.26-2.15,17.09-2.49Zm69.87-47.94c2.36-2.15,4.7-4.95,5.19-6.23s1.58-2.33,2.41-2.33,1.07.79.5,1.75.24.64,1.78-.7,3.38-2.44,4.11-2.44,2.23-1.26,3.34-2.79c2-2.71,6.55-4.1,4.94-1.49-.44.71-5.8,5.1-11.9,9.76-11.3,8.62-18.18,11.59-10.37,4.47Zm-78.94-9.95a1.45,1.45,0,0,1,1.48-1.4c.81,0,1.09.63.62,1.4s-1.14,1.39-1.48,1.39S873.13,727.22,873.13,726.46Zm80.92.19c0-1.48,10.42-12.75,11.79-12.75.46,0,3.71-2.87,7.22-6.38s6.69-6.06,7.08-5.67c.74.74-.36,2.18-7.29,9.61-6.11,6.54-18.8,16.8-18.8,15.19Zm7.68-1.59a3,3,0,0,1,2.25-1.39c.77,0,1,.62.54,1.39a3.06,3.06,0,0,1-2.26,1.4C961.49,726.46,961.25,725.83,961.73,725.06Zm-20.12-98.23c-.9-1.07-1.24-3.5-.76-5.4,1.07-4.28,23.9-30.31,26.58-30.31,3.88,0,1.8,3.2-8.94,13.73-6,5.88-12.11,12.52-13.57,14.76l-2.66,4.08,4.85-1c13.51-2.9,26.9-4.92,28-4.23,2.18,1.34,1.37,4.2-2.11,7.47l-3.37,3.17-1.59-3c-1.41-2.65-2.36-2.87-8.84-2a42.76,42.76,0,0,0-11,2.83c-4.63,2.34-4.59,2.34-6.58-.06Zm26.67-26.08c.71-2.17,19.8-6.73,23.86-5.71,3.67.92,2.26,5.1-1.83,5.42-1.91.15-7.79.71-13.07,1.25-7.9.81-9.49.64-9-1ZM113.46,786.44c.48-.77.24-1.39-.53-1.39a3.05,3.05,0,0,0-2.26,1.39c-.47.77-.23,1.4.54,1.4A3,3,0,0,0,113.46,786.44Zm37.73-.09c1.5-2.43-.21-3-2.12-.64-1.1,1.32-1.21,2.13-.28,2.13a3.27,3.27,0,0,0,2.4-1.49Zm396.49.64a2.84,2.84,0,0,0-2.68-.11c-1.11.45-.78.78.85.85,1.47.06,2.29-.27,1.83-.74Zm8.05-.55a3.68,3.68,0,0,0-2.87-1.4c-1.11,0-2,.63-2,1.4s1.29,1.4,2.87,1.4S556.2,787.21,555.73,786.44Zm170.21,0c-.47-.77-3.49-1.32-6.71-1.23-5.52.16-5.61.22-1.66,1.23C723.76,788,726.92,788,725.94,786.44Zm22.32,0c.48-.77.2-1.4-.61-1.4a1.45,1.45,0,0,0-1.48,1.4c0,.77.28,1.4.62,1.4S747.79,787.21,748.26,786.44Zm10.09.55a2.82,2.82,0,0,0-2.67-.11c-1.12.45-.79.78.84.85,1.47.06,2.29-.27,1.83-.74Zm24.47-.14a25,25,0,0,0-7,0c-2.12.32-.72.59,3.12.6s5.57-.25,3.86-.58Zm40.09-.47c1.52-1,1-1.17-2.1-.48-5.13,1.14-6.24,1.94-2.67,1.91a10.27,10.27,0,0,0,4.77-1.43Zm14.2-2.87c1.11-3.17,1.83-3.82,2.7-2.44s1.2,1.36,1.21.21c0-.92-1-2.26-2.29-3-2.15-1.21-2.15-1.7,0-7,3.44-8.58,1.43-6.94-2.57,2.1s-4.29,10.73-1.16,6.8c2.22-2.79,2.22-2.79,1.51,0a49.31,49.31,0,0,1-1.72,5.23c-.55,1.35-.59,2.44-.09,2.44s1.6-1.94,2.43-4.32Zm9.49-.29c0-.62-.6-.74-1.37-.27a4.07,4.07,0,0,0-1.37,3.22c0,2,.2,2.07,1.37.27A8.64,8.64,0,0,0,846.6,783.22ZM109.09,782c-.7-1.14-6.1,1.78-6.1,3.29,0,.51,1.52.21,3.37-.66S109.44,782.53,109.09,782Zm250.83,2.73c-1.06-1.05-2.08-1.13-3-.22s-.36,1.45,1.61,1.6C360.78,786.24,361.12,785.9,359.92,784.69Zm347.54.76a20,20,0,0,0-6.28,0c-1.72.34-.31.61,3.14.61s4.87-.27,3.14-.61Zm32.09,0a20,20,0,0,0-6.28,0c-1.72.34-.31.61,3.14.61s4.87-.27,3.14-.61Zm186.74-1.51c-4.91-.24-9.43.07-10,.68s3.4.82,8.92.44l10.06-.68-8.93-.44Zm-764.71-.29c0-.77-.27-1.4-.61-1.4s-1,.63-1.48,1.4-.2,1.39.62,1.39A1.43,1.43,0,0,0,161.58,783.65Zm211.72.4a30.76,30.76,0,0,0-7.67,0c-2.11.31-.39.58,3.83.58S375.41,784.36,373.3,784.05Zm60.72.08a8,8,0,0,0-4.19,0c-1.36.35-.59.66,1.72.69S435,784.51,434,784.13ZM671.77,782c-.45-1.11-.78-.78-.84.84s.27,2.3.73,1.84A2.84,2.84,0,0,0,671.77,782Zm-308.59-1c5.37-.72,17.3-1.13,26.51-.92s22.07-.13,28.6-.75,16.88-1.54,23-2a140.52,140.52,0,0,0,16-2c8.17-1.95,23.46-3,20.23-1.37-2.16,1.08-1.69,1.2,2.09.5,5.36-1,26.68-.82,27.72.23,1.45,1.44-1.59,1.72-27.72,2.54-34.14,1.08-50.35,2.36-49.4,3.9.41.65,2.12.9,3.8.53,3.34-.72,28.88-1.9,74.2-3.43,16.12-.55,25.66-1.11,21.2-1.25-5.08-.15-7.78-.78-7.23-1.67a1.61,1.61,0,0,1,2.18-.61c.71.44,1.29.14,1.29-.68s-2.81-1.47-6.36-1.47-6,.57-5.58,1.26,2.14.91,3.79.48c2.06-.54,2.69-.28,2,.83-.55.89-3.31,1.56-6.15,1.5s-4.36-.42-3.4-.81c3.24-1.31,1.77-3.26-2.44-3.26-2.31,0-4.19-.47-4.19-1s15.38-1.17,34.18-1.33c20.95-.17,34.18.23,34.18,1s-7.25,1.37-17.09,1.43c-19.67.11-27.4,1.78-14.27,3.08a86.3,86.3,0,0,0,13.23.35c2.68-.26,13-.89,23-1.39,21-1.06,22.59-1.39,23.7-4.89.92-2.88,9.08-6.5,9.08-4,0,.92,2.71,1.19,7.33.74,17-1.67,20.66-1.7,23.49-.18,2.48,1.32.7,1.73-10.61,2.4-7.47.45-14.29,1.51-15.14,2.37-1.14,1.14,4.55,1.33,21.45.73,25.62-.91,35.58-1.84,34.21-3.21-.5-.5-5.43-.75-10.94-.55-6.91.25-9.35-.06-7.85-1,1.19-.74,7.16-1.38,13.25-1.42s14.06-.1,17.71-.15,6.63.56,6.63,1.39c0,2.08,2.82,1.8,7.67-.78,2.49-1.33,8.63-2.42,15.16-2.69,8.89-.38,11.58-1,14.15-3.45,2.23-2.09,3.48-2.5,4.19-1.37s1.42,1.2,2.51.11a5.76,5.76,0,0,1,3.68-1.47c1.58,0,1.27.79-1.17,2.82-1.84,1.53-2.95,3.17-2.48,3.64s1.82.07,3-.9,2.13-1.19,2.13-.48c0,2.91-3.31,4.24-9,3.6-3.62-.41-6.39-.06-7,.88a4,4,0,0,1-3.05,1.55c-1.15,0-1.7-.63-1.23-1.39,1.3-2.11-3.35-1.68-10.19.93-4.53,1.73-6.36,1.91-7.1.7s-1.72-1.1-3.72.42c-2.43,1.83-.82,2,15.43,2a274.15,274.15,0,0,0,31.49-1.91c11.41-1.63,14.73-2.75,22.82-7.7,9.38-5.75,12.8-6.69,8.44-2.32-1.24,1.24-1.71,2.26-1,2.26a5.14,5.14,0,0,0,2.76-1.56,3.69,3.69,0,0,1,3.42-.91c1.16.4,0,1.77-3,3.64-4.8,3-4.82,3-1.18,3,2.64,0,4.55-1.3,6.67-4.53,2.91-4.46,2.95-4.47,2.08-.7-.75,3.22-.44,3.84,2,3.84,2,0,3-1,3.29-3.73.53-4.5,2.83-5.54,5.76-2.61a8.5,8.5,0,0,0,5.21,2.15c4.72,0,1,3.51-4.1,3.9a28.6,28.6,0,0,0-7.4,1.68c-2.36,1-1,1.16,5.15.57,10.68-1,13.51-1.82,12.44-3.55s3.56-7,5.27-5.92c.71.44.16,1.71-1.23,2.83-2.36,1.91-2.34,1.95.38.64,4.11-2,5.48-4.1,7.53-11.7,1-3.66,2.35-7,3-7.4,1.69-1.05,1.48.6-1,7.62-1.17,3.36-1.84,6.39-1.5,6.74s2.08-4,3.84-9.59c3.52-11.28,3.71-11.7,4.69-10.72.38.38-.84,5.33-2.7,11s-3.13,10.59-2.82,10.9c.56.56,1.45-1.46,5.73-13.06,5.51-14.92,6.34-17.65,5.61-18.39-.44-.43-3.65.88-7.13,2.93s-6.35,3.21-6.35,2.6c0-1.19,3.38-3.59,10.79-7.66a191,191,0,0,0,19.67-13.84c1.11-.92,1.52-2.87,1-4.87-.46-1.83-.33-3.33.29-3.33,1.45,0,6.39-8.35,5.48-9.26-.38-.38-3.74,1.45-7.46,4.08-13.82,9.77-40.8,25-43.29,24.36-1.81-.42-.64-1.44,4.09-3.56,6.79-3,8.51-5.21,4.18-5.31-1.34,0-10.78-.51-21-1.07s-23-.59-28.38-.06c-9.5.94-10.15,1.25-18.12,8.63-9.4,8.71-9.25,11.39.68,11.63l5.75.13-7,1.9-7,1.91,9.07-.73c11.07-.89,15.35-1.86,15.35-3.5,0-.68-1.38-1.24-3.07-1.24-6.15,0-.17-3,7.61-3.75,5.81-.6,8.51-.25,10.9,1.43,3,2.11,3,2.26.49,3.11-9.81,3.27-14.15,5.57-13.53,7.18,1.08,2.82,3.95,2.11,6.8-1.69,1.44-1.92,3.42-3.49,4.38-3.49,2.74,0,2.12,1.27-2.52,5.18-5.31,4.47-3.66,5.93,6.78,6,6.13,0,8.6-.8,14.57-4.83,4-2.66,7.54-4.5,8-4.08s-.17,1.33-1.32,2c-5,3-6.13,4-5.34,4.81.46.46,5-1.43,10.2-4.21,10.9-5.89,14.13-5.59,3.75.34-6.1,3.49-6.71,4.22-4.67,5.6s1.61,1.64-2.53,1.88c-10.81.62-13.79,1.09-16.69,2.64-2.06,1.11-3.57,1.17-4.73.21-.93-.78-5.44-1.61-10-1.84-7.91-.41-8.43-.66-10.42-5s-2.2-4.59-9.44-3.85a101.51,101.51,0,0,0-10.61,1.57c-5.09,1.27-8.82-3.52-8-10.2.31-2.41-1.4-2.2-9.2,1.16-16.81,7.24-23.89,8.48-27,4.73-1.47-1.77-1.32-2.47.87-4.08,5.61-4.1.49-3.41-9.2,1.23-11.5,5.51-21.31,7.56-24.31,5.07-1.5-1.24-3.08-1.15-6.76.39-2.65,1.1-6.4,1.7-8.34,1.33a10.86,10.86,0,0,0-7.08,1.64c-3.37,2.21-3.61,2.19-5.09-.56-1.83-3.43-3.92-3.61-9.3-.8-4.19,2.18-11.66,2.85-11.7,1.05a7.49,7.49,0,0,0-1.16-2.85c-.92-1.44-2.78-1.21-9.14,1.18-7.39,2.76-8.18,2.82-10.49.72s-3-2-9.1.57c-7,3-13.34,3.71-13.34,1.51a3,3,0,0,1,1.4-2.17,3,3,0,0,0,1.4-2.1c0-1.67-13.05,2.29-21.23,6.44-3.62,1.83-7.23,3.33-8,3.33-2.86,0-1.37-3.57,3.08-7.37l4.55-3.88-7,3c-3.83,1.67-8.38,3.68-10.11,4.46a6.45,6.45,0,0,1-6.28-.22c-2.16-1.14-4.53-1.25-7.59-.36a28.75,28.75,0,0,1-9.91.56c-4.44-.59-6-.14-8.38,2.4-3.36,3.6-7.26,2.87-7.26-1.38,0-2.87-3.34-3.93-4.82-1.53-1,1.65-14.7,5.67-19.29,5.67-5.18,0-7.46-3.41-5.16-7.71,1-1.9,1.47-3.82,1-4.27s-6.8,2.05-14.09,5.58-13.93,6.4-14.75,6.4c-2.63,0-1.6-3.6,2-7,1.92-1.8,3.48-3.79,3.48-4.41,0-1.21-10.2,2.47-21.62,7.79-10.61,5-14.53,6.38-17.42,6.38-4.11,0-4.79-2.68-1.56-6.12,6.35-6.76,3.34-6.62-11.88.54-6.52,3.07-12.41,5.58-13.09,5.58-3.29,0-2.46-3.26,2-7.87,8.8-9.07,6.22-9.3-11.09-1-5.37,2.57-12.79,6.3-16.49,8.28-9.41,5-11.54,3.86-7.55-4.18,1.71-3.44,3.71-6.29,4.44-6.33s3.36-2,5.84-4.44c3.19-3.09,5.25-4.08,7-3.39,2.26.88,2.07,1.39-1.78,4.72a58.43,58.43,0,0,1-8.72,6.12c-2.42,1.3-4.4,3.33-4.4,4.51,0,2.37,1.95,1.7,18.83-6.54,13.58-6.62,24.42-9.8,24.42-7.15,0,.49-2.25,3.37-5,6.41s-4.68,5.84-4.3,6.22,6.81-2.21,14.28-5.77c15.23-7.26,18.86-7,12.72,1.1-4.34,5.7-3.65,7,2.31,4.4,17.09-7.51,34.39-13.53,36.53-12.71s2.2,1.23-.77,4.39c-4,4.27-2.84,5.81,2.38,3.13l9.5-4.92c5.52-2.87,15.22-4.88,16.64-3.46.41.41-1.18,2.92-3.52,5.59s-3.73,5.39-3.09,6c2.74,2.74,29.19-6.11,32.83-11,3.24-4.34,6.48-6.13,9.4-5.21,4,1.28,6.31,5.91,4.17,8.48-1.35,1.64-1.12,2,1.22,2,1.58,0,3.27-.63,3.74-1.4a4.37,4.37,0,0,1,3.38-1.39c1.38,0,4.89-1.89,7.78-4.19,6.4-5.08,7.3-5.15,9.33-.7s2.78,4.36,13-.48c6-2.86,12.16-7.78,21.81-17.44,7.39-7.41,14.06-13.47,14.83-13.47a5.5,5.5,0,0,1,3.09,2.06c1.36,1.64,1.26,2.49-.5,4.25a27,27,0,0,0-3.28,4c-.59,1-7,6.23-14.33,11.7S563.91,731.8,562,733.45l-3.49,3,3.49-1c22.64-6.24,26.08-6.6,24.54-2.59-1,2.68.79,2.42,10.54-1.54,8.7-3.54,12.43-3.49,9.43.13-2.12,2.56-.55,4.24,2,2.12,1.06-.88,5.47-2.82,9.8-4.31,6.37-2.19,7.87-2.33,7.87-.76a4.64,4.64,0,0,1-2.43,3.31c-4.82,2.7-.51,3.1,4.73.44a48.89,48.89,0,0,1,10.25-3.67,62.69,62.69,0,0,0,8.8-2.46c2.93-1.13,4.34-1.08,5.58.18s.93,2.3-1.67,4.42c-1.83,1.5-3,3-2.63,3.44,1,.95,17.4-6.22,23.22-10.14,5.06-3.39,8.49-3,5.49.64a29.77,29.77,0,0,1-6,4.76L667.32,732h4.49c8.68,0,27.57-8.57,45.42-20.62,6.9-4.66,10.65-6.31,13.95-6.14,2.48.14,21.77.41,42.88.61,32.49.31,39.05.72,42.88,2.67,4.31,2.22,4.71,2.19,9.13-.7,2.54-1.67,6.79-4.24,9.44-5.73,12.65-7.09,32-20.78,32.75-23.2.47-1.48,1.37-2.7,2-2.7,2.19,0,2.53,3.65.65,7-2.13,3.83-2.73,11-.75,8.93,1.38-1.48,5-13.8,6.37-22,.64-3.7,1.51-5.13,2.82-4.62,2.3.88,3.89-2.72,2.76-6.26-.59-1.86.18-3,2.72-4.2,3.39-1.54,7.21-9.26,6.15-12.43-.26-.8-2.36.34-4.65,2.53-4.14,4-28.57,22.63-35.9,27.44-2.94,1.92-3.84,2.07-3.83.61,0-1,1.73-3,3.84-4.35,5.14-3.27,11.67-8.27,25.63-19.61,6.42-5.22,13.88-10.52,16.56-11.78s5.39-3.11,6-4.11a4.36,4.36,0,0,1,3.34-1.82c2.16,0,5.88-3.75,6-6,0-.62-1.21-.74-2.74-.25-2.07.66-3.18,0-4.35-2.57-1.38-3-1-4.16,3-9.19,3.48-4.33,5.91-5.94,9.93-6.58,2.93-.47,5.41-1.4,5.51-2.07a22.65,22.65,0,0,1,.44-2.26c.47-1.8,4.17-9.38,4.93-10.12,3.93-3.76,9.09-14,7.08-14-.68,0-1.52.79-1.86,1.75s-1.06,1.34-1.59.84.12-3.31,1.46-6.27,3.12-7.58,4-10.27c1.86-5.93,6.74-6.91,7.5-1.52.43,3,.92,2.63,4.51-3.48,5-8.41,5-9.24.6-8.13s-4.94-2.74-.81-5c1.47-.78,3.09-3.32,3.6-5.63.71-3.24,1.68-4.19,4.26-4.19,2.88,0,3.18-.44,2.18-3.14-1.43-3.87-.58-6.63,2-6.63,1.27,0,2-1.5,2-4.19s.7-4.18,2.09-4.18c1.21,0,2.1,1.26,2.1,3,0,2.55.31,2.71,2.22,1.12s2-2,0-3.46c-2.68-2-2.8-4.52-.48-10,1.81-4.28,5.15-4.67,5.34-.62.06,1.28.41,1.6.77.71s-.26-3.82-1.38-6.51-1.69-5.27-1.24-5.71c1.77-1.77,3.11-.61,4.32,3.72l1.26,4.54,2.41-5.54c1.69-3.88,1.94-5.69.81-6.06s-1.14-1.08.12-2.6,1.31-2.31-.26-3.28-1.43-1.94,1.14-5.42c1.71-2.31,3.1-4.53,3.1-4.94s2.83-4.45,6.28-9,6.28-9.26,6.28-10.48.65-2.22,1.44-2.22c2.44,0,3.28,4.39,1.66,8.68-1.32,3.5-1.25,3.84.47,2.41a5.36,5.36,0,0,0,2-3.11c0-.79,1.47-3.38,3.26-5.76,4.22-5.6,16.57-28.9,15.75-29.73s-5.6,3.92-6.9,6.69a45.55,45.55,0,0,1-2.25,4.08,21.5,21.5,0,0,0-2.08,5.75,19.36,19.36,0,0,1-3.38,6.88l-2.61,3.23-.67-4.54c-1.05-7.2,7.27-20,23-35.23,2.28-2.21,3.51-4.6,3-5.85s-.09-3.46.79-5.1c1.2-2.26,1.2-3.47,0-5s-1.16-2.44.5-4.09a7.13,7.13,0,0,1,4-2.14c1,0,3.68-3.26,5.92-7.25a78.29,78.29,0,0,1,7.67-11.27,20.25,20.25,0,0,0,4.32-7.74c.48-2.55,1.59-3.74,3.49-3.75s2.66-.82,2.37-2.89c-.21-1.58,1.51-5.27,3.84-8.2,4.45-5.6,6-13,2.22-10.93-1.1.62-9.1.66-17.78.09-24.61-1.61-75.58-2.63-104.38-2.09-2.68.05-19,0-36.27-.14-50.95-.39-158,1-181.37,2.39-11.9.7-23.2,1.21-25.12,1.15-7.81-.28-69,2-69.91,2.6a1.53,1.53,0,0,1-1.94-.8,1.8,1.8,0,0,0-2.54-.37c-.9.59-11.38,1.16-23.27,1.28s-31.67.62-43.95,1.13c-29.49,1.23-57.93,2.13-92.46,2.92-15.56.35-32.51,1.28-37.67,2.06s-15,2.05-21.94,2.83-14.31,2-16.45,2.71-12.18,1.09-22.32.86c-21-.49-28,.91-30.64,6.1-5.89,11.68-12.9,22.61-17.1,26.7-2.67,2.59-4.86,5.44-4.86,6.34s-1.49,3.42-3.29,5.59c-3.64,4.4-12.47,16.89-19.77,28-6,9.16-30,51.67-30,53.21,0,.62-1.25,2.27-2.79,3.66s-2.79,3-2.79,3.48c0,1.58-22.7,40.28-30.7,52.33a188.85,188.85,0,0,1-14.86,19.26c-4.1,4.46-7.45,8.7-7.45,9.43,0,1.32-14.24,21.22-17.73,24.77a6.25,6.25,0,0,0-1.81,2.95c0,.61-1.87,3.23-4.16,5.83a75.17,75.17,0,0,0-8.37,13.12c-5.7,11.37-25.57,40-41.14,59.27-3.41,4.22-6.27,8.3-6.36,9.07s-3.52,6.1-7.65,11.86-12,18-17.5,27.17S82.66,746.2,78.68,750.82c-6.89,8-12,15.11-12,16.73,0,.41.63.75,1.4.75s1.39-.94,1.39-2.09.47-2.12,1.05-2.15l8.34-.51a62.17,62.17,0,0,1,14.65,1.25c6.51,1.49,7.33,2.08,7.13,5.08q-.22,3.4,2.09,3.57c1.28.09,11.42.61,22.55,1.14S150.24,776,156,776.46a199.55,199.55,0,0,0,20.7.5c8.62-.35,10-.73,8.6-2.39-2.19-2.63-.59-4.88,3.49-4.88,1.83,0,3.71-.62,4.19-1.39a2.92,2.92,0,0,1,2.08-1.4c1.63,0,.23,7.37-1.61,8.52-.8.49.49,1.18,2.87,1.53,3.94.57,6.12-.79,3.05-1.91-.71-.25-1-2.19-.54-4.29.68-3.5,1.18-3.77,5.82-3.15,2.79.37,9.63,1,15.21,1.31s10.75,1,11.51,1.5a3.13,3.13,0,0,1-.37,5.34c-1.47.59.55.92,5.58.92.57,0,1-.73,1-1.63,0-2.83,3.64-3,4.38-.17.55,2.12,1.63,2.56,5.14,2.07a15.06,15.06,0,0,0,6.53-2.42c2.54-2.19,25.94-4.51,24.66-2.44-.52.84.51,1.14,2.58.74,2.54-.49,3.45-.05,3.45,1.63,0,2.12.33,2.12,4.47,0,4.29-2.22,4.56-2.2,6.35.51,1.63,2.44,2.49,2.63,6.34,1.39a62,62,0,0,0,7.69-3.09c4.66-2.39,22.2.09,19.53,2.77-.67.66-3.61.74-15.58.39-2.19-.06-4.39.46-4.88,1.16-1.5,2.12-13.81,1.91-15.62-.28-1.37-1.65-2-1.66-4.32-.07-3.08,2.16-13.66,1.46-18.88-1.25a12.22,12.22,0,0,0-7.08-.85c-3.82.84-3.82.85.7,1.29,8.05.79,4.82,2.36-4.88,2.37-26.18,0-46.74.8-45.82,1.72.57.57,24,1.18,52,1.35s51.18.49,51.4.71c.88.88,38.25-.35,47.37-1.57Zm-31.39-5.32c0-1.66.67-3.43,1.48-3.94,2.64-1.62,3.05.48.75,3.77l-2.23,3.19Zm8.37-.24c0-1.67,3.56-2.94,8.25-2.94,2.11,0,4.29-.45,4.84-1,1.76-1.77,13.48-4.22,14.24-3,.41.66,2.43.8,4.49.31,5.48-1.28,2.23,1.36-5.18,4.23-4.49,1.74-6.42,2-7.14.78s-3.26-1-9.66.62C339.83,777.06,340.16,777,340.16,775.43Zm-173-1.55a1.4,1.4,0,0,1,2.79,0,1.4,1.4,0,1,1-2.79,0Zm7.67,0c-.49-.8.65-1.26,2.71-1.09s3.57.78,3.57,1.38c0,1.59-5.27,1.34-6.28-.29Zm71.85,0a1.4,1.4,0,1,1,1.4,1.4A1.4,1.4,0,0,1,246.68,773.88Zm138.12-.53a3.81,3.81,0,0,1,1.4-3c.76-.47,1.39.08,1.39,1.23a3.8,3.8,0,0,1-1.39,3C385.43,775.05,384.8,774.5,384.8,773.35Zm34.33-.06c.84-2.18,4.7-4.09,5.88-2.91.77.77-3.87,4.78-5.63,4.85-.56,0-.66-.85-.25-1.94Zm10.32.59c1.92-.61,9.14-1.09,16-1.06,11.65.06,12,.14,4.89,1.12-10.62,1.47-25.57,1.43-20.93-.06ZM129,773c-.5-.5-5.31-.78-10.7-.62-8,.23-9.78-.11-9.78-1.87s1.84-2.11,10.11-2c5.57.11,10.83.75,11.7,1.42s1.89.39,2.43-1c1.1-2.86,3.66-1.3,3.66,2.22,0,1.91-1,2.71-3.26,2.71-1.79,0-3.66-.41-4.16-.91Zm25.33-.08c-3.71-.56-6.06-3.7-4.58-6.11.43-.7,2.87-1.27,5.42-1.27,3.59,0,4.82.69,5.43,3,.82,3.14.09,5.5-1.59,5.13C158.52,773.56,156.41,773.21,154.37,772.89Zm244.38-1.1a2.09,2.09,0,1,1,2.09,2.09A2.1,2.1,0,0,1,398.75,771.79Zm-9.77-1.4a1.87,1.87,0,1,1,1.86,2.1A2,2,0,0,1,389,770.39Zm202.29.79c0-1.83,5.29-4.61,7.4-3.89.92.31-.37,1.62-2.86,2.92s-4.54,1.73-4.54,1Zm-452-2.18c0-2.52,1.63-2.7,3.91-.42,1.3,1.3,1.67,1.28,1.67-.08,0-1,.63-1.37,1.4-.9,2.75,1.7,1.32,3.49-2.79,3.49-2.79,0-4.19-.69-4.19-2.09Zm29,1.09c-2.13-.32-3.83-1.47-3.83-2.58,0-1.52,2.09-2,8.83-2,9.56,0,11.53.8,9.12,3.71C180.8,771,176.22,771.31,168.18,770.09ZM580.1,769a16.8,16.8,0,0,1,7-2c3.36,0,3.39.07.78,2a13.22,13.22,0,0,1-7,2l-4.27,0,3.49-2Zm-129.75-1.44c7.71-2.58,31.53-4.54,30.26-2.48-.48.77-6.39,1.8-13.12,2.27s-14.77,1.19-17.84,1.59l-5.58.72Zm-71.16-.65a1.45,1.45,0,0,1,1.48-1.4c.81,0,1.09.63.62,1.4s-1.14,1.39-1.48,1.39S379.19,767.67,379.19,766.91Zm366.93-1.69c0-2.49,5.22-7.5,6.5-6.23.49.49-.77,2.56-2.8,4.6C747.28,766.12,746.12,766.64,746.12,765.22Zm-7-.84c0-.62,1.89-2.53,4.19-4.23,4.83-3.57,5.74-1.27,1,2.65-3.38,2.82-5.23,3.38-5.23,1.58Zm15.5-2.14c.93-2,2.58-3.7,3.68-3.7,2.73,0,1.55,2.81-2.23,5.32C753,765.9,753,765.87,754.64,762.24Zm-442.42-6.88c0-4.61,19.51-25.5,33.49-35.86,9.24-6.85,30.64-17.67,37.78-19.1,3.42-.68,4.07-.28,4.91,3.08,1.23,4.92-2.28,11.66-9.47,18.15s-14.2,6.67-20.73.57c-5.06-4.73-7.69-4.53-9.69.72-1.72,4.53-31.36,34.22-34.16,34.22a2,2,0,0,1-2.13-1.78Zm21-17.88c5.36-5.44,9.74-10.51,9.74-11.26,0-2.07-7,3.36-13.26,10.28-8.71,9.65-9.6,10.87-7.81,10.87.88,0,6-4.45,11.33-9.89ZM372,723.54c4.72-1.65,12.81-12.41,12.81-17,0-2.3-.67-2.59-4.29-1.87-6.26,1.26-25.68,10.75-24.18,11.83a13.88,13.88,0,0,1,2.8,3.68,9.13,9.13,0,0,0,4.88,3.69c1.84.52,3.42,1,3.5,1.08a32.16,32.16,0,0,0,4.48-1.37Zm436.94,7.35c0-1.69,2.65-3.66,3.62-2.69.35.35-.32,1.43-1.49,2.4C809.7,731.7,808.9,731.81,808.9,730.89ZM825,718.78c6-5.22,22.94-15.2,24-14.15.81.81-11.12,7.86-13.3,7.86a1.5,1.5,0,0,0-1.63,1.3c0,1.32-11.89,9.88-13.67,9.85C819.8,723.62,821.88,721.44,825,718.78ZM519.63,703.19c-1.81-1.81-.87-4.26,4-10.54,4.44-5.7,20-19.22,22.17-19.22,1.78,0,11.95-7.42,11.95-8.72,0-.75-1.42-.45-3.14.67-5.57,3.62-21.67,8.24-27.13,7.79-4.22-.35-5.4-1.06-5.74-3.47l-.43-3-6.73,3.12a101.75,101.75,0,0,0-10.14,5.35c-4.22,2.76-7.69,3.34-12.52,2.07a14.26,14.26,0,0,0-7.41.41c-5.38,2-9.6-.51-8.44-5.12.84-3.36.54-3.27-7.27,2.2-8.09,5.68-11.5,7-11.5,4.34,0-.84-3.22-1-8.38-.5-7.18.75-8.37.55-8.37-1.41,0-3-.1-3-8.37,1.89-11.64,6.86-14.72,5.32-5.93-3,8.23-7.76,12.92-10.89,15.09-10.06,3.17,1.22,2.35,2.85-1.85,3.69s-10.54,5.64-9.19,7c.47.48,2.43-.37,4.35-1.88,4.28-3.37,10.4-3.77,9.18-.6-.68,1.77,0,2,3.88,1.19,2.59-.52,6-1.06,7.66-1.19s6.14-2.58,10-5.43c5.29-3.89,7.91-5,10.45-4.34a5.68,5.68,0,0,0,5.57-1.34c1.21-1.21,2.62-2.2,3.14-2.2s4.08-2.82,7.92-6.28,7.54-6.27,8.23-6.27c2.72,0,1,4.26-2.59,6.49-5.64,3.48-18.49,16.15-18.49,18.22,0,3.77,7,1.5,14.41-4.69,2.17-1.8,4.52-3.28,5.23-3.28,2.4,0,1.3,4.08-1.5,5.58s-3.8,4.19-1.38,4.19c2.89,0,30.12-14,33.71-17.38,5.48-5.1,22.41-15.79,26.72-16.87,6-1.5,4.6,2.54-2.2,6.43-3.26,1.86-7,4-8.28,4.79l-9.77,5.76c-14.22,8.38-16,14.11-3.78,12.5,7.89-1,27.35-9,35.54-14.44l14.52-9.74c4.85-3.27,10-5.93,11.48-5.93,3.92,0,1.83,2.36-7.08,8-4.33,2.75-8.33,5.68-8.89,6.52s-1,1-1,.4-2.92.88-6.46,3.31l-6.43,4.43,6.44,3.27c3.54,1.79,7.38,2.9,8.53,2.46,2.51-1,2.83,1.71.34,2.88-1,.46.58.56,3.42.22s10.38-3.06,16.75-6.05c11.23-5.27,19-11.76,27.84-23.36,4.58-6,6.93-7.58,11.29-7.63,2.83,0,3.83.64,3.83,2.56,0,4.28-5.21,9.61-15.19,15.54-8.19,4.86-19,14-16.58,14a84.28,84.28,0,0,0,8.69-3c5.77-2.21,8.27-2.6,9.42-1.46s1.07,2.14-.27,3.74c-2.71,3.28-.82,4,4,1.53a19.77,19.77,0,0,1,7.11-2.2c3,0,3.84,2,1.46,3.49a2.88,2.88,0,0,0-1.39,2c0,1.21,13.08-2.49,20-5.65,3.08-1.41,4.52-1.44,6.61-.14a11.16,11.16,0,0,0,4.74,1.67c1.57,0,1.87,1,1.24,4.19l-.84,4.2,34-.31c59.7-.54,76.56.51,76.56,4.76,0,1-2.82,1.1-8.72.33-4.79-.63-29.83-1.18-55.65-1.23l-46.92-.08-2.62-3.24c-2.21-2.72-3.19-3-6.27-1.84-2.64,1-4.37.89-6.26-.41-2.18-1.51-4-1.36-10.81.87-9.36,3.07-12.67,2.56-11.31-1.74.88-2.75.6-2.72-6.32.78-4,2-8.26,3.28-9.51,2.8-1.82-.7-1.18-1.79,3.28-5.55,10.49-8.82,2.32-7.33-14.83,2.72-9.57,5.61-12,5.45-6.37-.42,5-5.21,4.71-6.31-.8-3.1-5,2.94-20.7,8.43-24,8.43-2,0-2.78-1.71-2.25-4.68.49-2.73-3.35-5.09-8.29-5.09-4.68,0-6.87,1.43-19.36,12.64-7.75,7-14.09,13.09-14.09,13.64,0,1.51-8,10-9.45,10a3.54,3.54,0,0,1-2.17-.93Zm15.81-18.33c0-.39-1.25.44-2.79,1.82s-2.79,3.16-2.79,3.92,1.26-.05,2.79-1.82A15.59,15.59,0,0,0,535.44,684.86Zm-65.57-14.22c1.77-1.53,2.59-2.79,1.82-2.79s-2.52,1.26-3.91,2.79-2.21,2.79-1.83,2.79,2.15-1.26,3.92-2.79Zm162.52-25.1c2.2-2.29,3.57-4.6,3-5.13-1-1-9.3,6.25-9.3,8.17C626.13,650.79,628.45,649.66,632.39,645.54ZM832.61,693a1.29,1.29,0,0,1,1.13-1.39c.63,0,3-1.74,5.24-3.86a40.6,40.6,0,0,1,7.65-5.67c2-1,9.8-6.45,17.44-12.12s14.51-10.34,15.28-10.35c1.75,0-6.55,7.2-14,12.13-3.07,2-8.41,6-11.86,8.77-7.19,5.77-19,13.89-20.13,13.89-.44,0-.8-.63-.8-1.4Zm-492.49-9.55c0-1.4,4.65-5.79,6.13-5.79,1.33,0,11.64-7.14,16.19-11.19l3.49-3.12-6.63,1c-3.85.56-6.63.42-6.63-.34s3.3-1.73,7.33-2.26c7.31-1,11.71-3.06,17.05-8.15,1.56-1.48,6.44-5.49,10.85-8.91,7.73-6,10.81-6.71,10.81-2.52,0,2.62-12.07,12.07-20.49,16-6.48,3-14.39,9.21-14.39,11.21,0,.53,2.36.13,5.24-.9,11.14-4,18.88-1.22,11.16,4-4.92,3.31-1.92,4.3,3.33,1.1,2.58-1.57,5.86-2.86,7.29-2.86,2.46,0,2.48.19.32,3.48-1.26,1.92-1.68,3.49-.93,3.49,3.43,0,19.64-10.87,25.91-17.39C426,650,433,645,436,646.17c2.15.83,1.92,1.42-1.84,4.69a90.65,90.65,0,0,1-7.48,5.83c-3.2,2.11-9.84,7.63-17.52,14.56-4.65,4.2-4.94,4.14,7,1.39,6.83-1.57,2.33,1.83-5.54,4.2-4.51,1.36-7.42,1.6-8.49.71s-3.63-.47-7.62,1.32c-6.69,3-9.74,2.54-9.74-1.44,0-2.57-.14-2.58-3.69-.25-8.1,5.31-12.07,2.54-5.38-3.75,7.56-7.09,2-6.78-14.41.81a120.66,120.66,0,0,0-14.16,7.55c-4.14,2.94-7,3.61-7,1.62Zm-24.49-1.73c-1.1-1.77,10.75-13.6,21.73-21.71,9.41-7,23.72-14.9,32.07-17.8,7.89-2.75,8-2.75,9.63.34,2.24,4.19.12,8.54-5.58,11.45s-15.23,3.71-15.23,1.33c0-.76,2.48-1.39,5.5-1.39,6.74,0,14.46-5.64,11.64-8.51-2.16-2.19-17.87,4.18-23.7,9.61-8.56,8-20.44,16.89-21.57,16.2-.65-.41-1.6.4-2.11,1.79-1,2.71-8.62,10.21-10.39,10.21a3,3,0,0,1-2-1.52Zm85.87-26.3c0-3.76,2.64-5,5.18-2.48s1.29,5.18-2.47,5.18A2.44,2.44,0,0,1,401.5,655.38Zm-99.75-35c-3.42-1.64-7.07-2.37-9.42-1.9-2.83.58-4.08.15-4.76-1.62-1.2-3.14,2.68-6,7-5.17,3.28.62,12.07-3.13,19.38-8.27,5.14-3.63,4.83-4.86-1-4.18-3.73.44-4.88.06-4.88-1.59,0-2.69,2.23-4.13,6.88-4.44a67,67,0,0,0,8.11-1.27c3.55-.8,4.54-.57,4.54,1.05,0,3.31-11.27,13.89-18.63,17.49-5.83,2.86-6.48,3.58-4.78,5.29,2.43,2.42,6.26,1.16,7.4-2.44.47-1.46,1.75-2.66,2.85-2.66,1.7,0,1.73.67.21,4.39-2.9,7.12-6.24,8.5-12.86,5.32Zm23.66-1.43c-.92-1.49.6-3.71,8.31-12.12,8.54-9.33,11.1-2.15,2.73,7.68-4.91,5.75-9.17,7.47-11,4.44Zm27.26-.7c0-5.45,10-16.68,13.66-15.29a12,12,0,0,0,2.5.73c.32,0,.58.9.58,2,0,3.51-12.15,14.74-16,14.74-.43,0-.79-1-.79-2.18Zm11.87-9c1.61-2.61-1.66-1.4-4.33,1.6s-2.63,3,.41,1.39A12.62,12.62,0,0,0,364.54,609.25Zm15.56,10.23c-.46-.47,3.85-5.58,9.58-11.37s10.43-11,10.43-11.67.94-1.14,2.09-1.14c4.34,0,1.51,4.12-13.5,19.69-3.09,3.21-7.55,5.53-8.6,4.49Zm57.73-.81c0-1,2.9-3.84,6.39-6.4s6.11-4.88,5.83-5.16-4.79,1.67-10,4.31-10.47,4.81-11.61,4.81c-2.54,0-10.16-8-10.16-10.61,0-3.44,25.68-27.06,29.41-27.06.75,0,2-1.57,2.68-3.49s2.31-3.49,3.51-3.49,4.65-1.25,7.65-2.79c6.17-3.14,10.52-3.57,12-1.16,1.24,2-5.59,8.14-9.05,8.14a5.86,5.86,0,0,0-3.45,1,8.52,8.52,0,0,1-3.82,1.41c-4.92.75-8.23,3.2-8.23,6.08,0,2.16-.68,2.6-3.14,2s-4.65.61-8.93,4.5c-3.18,2.9-7.77,7-10.21,9.18s-4.17,4.66-3.86,5.58c1.17,3.51,5.66,2.43,11.95-2.85a80.29,80.29,0,0,1,9.56-7.1c4.1-2.18,8.81-2.06,8.81.23s-10.34,9.77-17.09,12.18c-2.87,1-5.23,2.37-5.23,3,0,1.59.26,1.52,10-2.64,10.84-4.61,22.78-11.9,28.35-17.3,4.18-4,18.5-16.7,27.11-23.94,5.89-4.95,9.86-5.08,9.86-.32,0,2.4-1.11,4-3.49,5.11-1.92.87-3.49,2.38-3.49,3.36s-1.41,2.2-3.14,2.73a20,20,0,0,0-5.93,3.34c-1.53,1.32-7.18,5.12-12.55,8.45-10.28,6.37-24.83,18.19-23.73,19.28.35.36,1.51-.07,2.57-1,1.56-1.3,16.79-7.17,18.59-7.17s-.18,4.3-3,6.15c-1.92,1.26-3.49,2.85-3.49,3.54,0,1.45,6.36-1.53,15.27-7.16,8.75-5.53,11.79-5,5,.93-3.42,2.95-4.74,4.83-3.42,4.86a5.71,5.71,0,0,0,3.49-1.16c2.43-2.22,14.34-6.07,15.87-5.13,1.05.65,1.07,1.74.06,3.64-1.9,3.55-1.53,3.47,8-1.72,11.13-6.08,21-13.52,32.12-24.21,9.09-8.74,14.36-11.29,14.36-6.94,0,1.15-.54,2.09-1.19,2.09-1.18,0-3.57,1.89-12.89,10.19-2.75,2.45-6.54,5.71-8.42,7.25-14,11.46-19.75,16.9-20.83,19.74-1.34,3.52-5.5,4.55-5.5,1.36a5.86,5.86,0,0,1,2.12-3.69c3.85-3.19,1.22-2.86-6.94.87l-8,3.68-2.81-2.81-2.81-2.82-4.73,2.79c-5.07,3-9.7,2.44-8.38-1,.44-1.14.48-2.08.09-2.08-1,0-8.11,4.6-9,5.79-.39.53-2.36,1.38-4.38,1.89-5.46,1.37-6.3-1.67-1.77-6.39,3.62-3.79,3.7-4.08,1-4.08a6.77,6.77,0,0,0-4.62,2.1,5.63,5.63,0,0,1-3.42,2.09c-.92,0-3.18,1.6-5,3.56-2.39,2.55-4.25,3.33-6.52,2.76s-3.18-.18-3.18,1.33a2.11,2.11,0,0,1-2.09,2.12,1.88,1.88,0,0,1-2-1.75Zm7.51-17.24c2.28-.87,3.07-3.34,1.07-3.34a10.32,10.32,0,0,0-3.83,2C439.81,602.23,441.36,603,445.34,601.43Zm339.84,17.78c0-.67,1.32-2.9,3-5s2.72-4,2.44-4.25-2.92.67-5.88,2.11c-7.8,3.8-20.6,4.83-25.91,2.08-3.36-1.73-5.88-1.94-12-1a50.08,50.08,0,0,1-14,.06c-3.68-.69-7.65-.61-9.76.2-4.89,1.86-6.18,1.71-6.18-.74a2,2,0,0,1,1.81-2.09c1,0,5.23-2.18,9.42-4.85,8.11-5.17,13.89-6.33,13.89-2.8,0,1.16-2,3.41-4.54,5l-4.53,2.89,9-.91c4.93-.51,11.35-2.13,14.25-3.61s6.24-2.7,7.43-2.7c3.32,0,2.53,3.75-1,4.75-2.82.79-2.89,1-.75,2.29,2.56,1.51,17.31-.27,24.44-3,6.74-2.54,17-10.26,17.09-12.8,0-1.34.66-2.52,1.43-2.61,2.33-.29,3.33-.65,7.36-2.61,2.74-1.33,4.31-1.45,5.36-.4,2.4,2.4-.93,6.94-6.43,8.76-2.69.89-4.92,2.35-5,3.25s-2.85,3.83-6.28,6.51-6.22,5.43-6.22,6.11c0,1.14,7.57.41,15-1.44,1.8-.44,3.13-.13,3.13.73,0,2.64-8.4,6-14,5.58-3-.22-5.84,0-6.39.6-1.4,1.4-6.1,1.23-6.1-.22Zm-252.53-6.33c0-1.08,2-3.26,4.53-4.86s4.14-2.92,3.66-2.93c-2-.05-11.84,4.58-14.13,6.62-1.35,1.2-2.88,1.75-3.4,1.23-1.38-1.38.67-2.94,10.21-7.75,9.38-4.73,15.3-5.67,14-2.21-1,2.64-1,2.64,7.55-.73l7.15-2.82.74,2.82c.92,3.5,1.07,3.5,7.13-.25,3.42-2.11,5.13-2.54,5.51-1.39.62,1.84,4,2.28,4.74.62.26-.57,3.47-2.46,7.13-4.18,11.26-5.31,16.41-3.52,7.64,2.65-7.09,5-8.27,6.37-6.13,7.19,3.31,1.27,15.51-3.88,25.14-10.61,5.22-3.65,10.53-6.77,11.81-6.95,5.4-.72,2.94,2.92-6.12,9-5.34,3.59-9.64,7.2-9.56,8s.23,2.2.35,3.08c.14,1.08,2.66,1.34,7.88.8,5.94-.62,7.67-.37,7.67,1.11,0,2.57-10.77,4.09-15.69,2.22-2.44-.93-3.84-2.49-3.84-4.29,0-3.35-.92-3.46-7.15-.87a36,36,0,0,1-15.52,2.38c-3-.19-3.18-3.38-.31-5.76,4.26-3.54.76-2.84-6.61,1.32-5.45,3.07-8,3.83-9.07,2.74s-2.87-1-6.37.23c-2.66,1-6,1.3-7.46.74-2.46-.94-2.47-1.09-.18-2.37,1.35-.76,2.45-2,2.45-2.73s-4.77,1.17-10.59,4.26C534.2,615.36,532.65,615.8,532.65,612.88Zm107.59-1.23c-2.71-2.71-1.71-5.89,3.42-10.84l5-4.81-5-.7c-2.76-.38-5-1.32-5-2.09.06-1.66,2.1-1.85,26.07-2.43l18.35-.45,6.28-5.79c6.63-6.11,6.84-7.38,1.25-7.38-4.27,0-12.83-5.14-12.83-7.7,0-3.52,2.57-3.52,6.38,0,2.08,1.93,5.42,3.55,7.42,3.61a52.12,52.12,0,0,1,6.63.67c1.64.31,5.91-1,9.49-2.9,8.14-4.32,14.72-4.64,14.72-.69,0,3.71-4.81,6.5-13.25,7.67A35.68,35.68,0,0,0,698,581.39c-5.9,3.62-10.9,9.25-9.81,11,.53.84-.11,1.5-1.44,1.5s-5.71,2.84-9.78,6.32-10.1,7.49-13.4,8.9c-7.45,3.2-21.12,4.68-23.28,2.52ZM654.16,608c8-1.31,20.3-7.94,22.68-12.19,1.15-2,.43-2.19-6.87-1.33-4.48.52-9.23,1.93-10.55,3.13a5.46,5.46,0,0,1-5.43,1.21c-2.3-.73-4.17.13-7.72,3.58C639.25,609.17,640.66,610.17,654.16,608Zm48.35,2.58c-3.66-2.13-3-4.92,1.74-6.87,2.31-.95,4.19-2.28,4.19-3,0-2.2-2.22-1.31-11.11,4.43-9,5.85-14.32,6.67-15.14,2.37-.27-1.41,1.8-4.73,4.87-7.81,5.49-5.51,25.08-19.75,27.18-19.75,3,0,.45,2.68-7.58,8-11.29,7.42-21.55,16.57-20.16,18,1,1,10.92-3.44,19.39-8.77,3.1-2,4.1-2,5.93-.52,3.48,2.89,2.59,5.53-2.75,8.07l-5,2.37,3.21,2.46c3,2.33,3,2.47.42,2.46a12.62,12.62,0,0,1-5.23-1.43Zm149.63-2.68c-2.68-.65-12.73-1.5-22.32-1.88-17.18-.68-22.32-1.54-22.32-3.71,0-1.64,18.36-3.3,33.48-3,17.23.32,27.21,2.7,27.21,6.52,0,2.28-1,2.83-5.58,3A45.56,45.56,0,0,1,852.14,607.86Zm-16.74-6.2c0-.34-.63-1-1.4-1.48s-1.39-.19-1.39.62a1.45,1.45,0,0,0,1.39,1.48C834.77,602.28,835.4,602,835.4,601.66Zm80.92-9c0-2.92,4.89-9.68,6.12-8.46.42.43.39,3.1-.07,5.93-.62,3.81-1.52,5.16-3.44,5.16A2.41,2.41,0,0,1,916.32,592.67Zm-461.59-1.48c.31-.92,1-1.63,1.57-1.57,1.67.17,1.35,2.08-.45,2.68-.92.31-1.42-.19-1.12-1.11ZM734,589.84c-5.52-.45-10.83-1.6-11.78-2.56-1.4-1.39.7-1.74,10.49-1.74,11.78,0,17.62,1.4,17.62,4.23,0,.74-1.41,1.24-3.14,1.12s-7.66-.59-13.18-1Zm-173.76-2.53c-5.29-.55-6.93-2.61-3.22-4,3.15-1.21,16.52,1.36,17.17,3.3.59,1.77-2.46,1.93-13.95.73Zm-102.9-4.56a1.4,1.4,0,1,1,1.4,1.39A1.4,1.4,0,0,1,457.31,582.75ZM259.2,538.86c0-1.11,1.61-3.15,3.57-4.53,2.69-1.9,20-14.81,24.22-18.1.32-.25.27-.76-.1-1.14-1.08-1.07-15,6.17-24.61,12.84-4.83,3.34-9.38,5.71-10.11,5.25-2.78-1.72-1.14-4.44,4.59-7.6a145.67,145.67,0,0,0,12.4-7.93c3.55-2.56,7.16-4.66,8-4.66,2.25,0,1.91-3.55-.54-5.58-3.08-2.56-2.6-3.84,2.45-6.54,7.72-4.13,14.16-6.07,17.53-5.28,5.06,1.19,3.19,4.72-5.74,10.82-4.45,3-7.82,5.79-7.49,6.11s3.49-.81,7-2.54c4.43-2.15,6.9-2.68,7.88-1.69s-1.49,3.69-7.94,8.65q-14.83,11.38-1.17,4.42c5.95-3,10.47-3.62,10.47-1.36,0,.79-3.8,5.15-8.45,9.69-6.51,6.37-8.63,7.76-9.28,6.08-.56-1.45,1-3.74,4.61-6.78,11-9.26,2.45-5.56-20.37,8.82-5.74,3.61-7,3.8-7,1.05Zm29.41-35.11,3.38-3.67-3.49,1.05c-4.07,1.21-7,3.32-7,5.05,0,2.44,3.77,1.14,7.08-2.43Zm18.22,33.88c-.86-1-1.15-2.29-.64-2.8s.22-.92-.63-.92a3.2,3.2,0,0,0-2.41,1.4c-.47.77-2.08,1.4-3.57,1.4-4.51,0-3.15-4.86,2.88-10.31s9.1-6.15,13.28-3.1c2.27,1.66,2.38,2.27.76,4.22-3.23,3.89-.56,4,5,.24,8.92-6.06,15.52-4.34,10,2.62-3.63,4.61-8,6.43-11.35,4.69-1.81-1-3.79-.52-7.15,1.56-3.85,2.38-4.93,2.55-6.21,1Zm4.73-11.81c-1.07-1.08-6.33,1.36-5.57,2.59.44.72,1.93.55,3.44-.4S311.86,526.11,311.56,525.82Zm52.9,9c-.51-2-1.09-3.68-1.29-3.68s-3.12,1.22-6.49,2.71c-7.71,3.41-18,3.57-17.85.27.18-4.26,2-7,9.84-15.12,15-15.43,17.86-17.82,19.52-16.16,1.14,1.14-.59,3.54-6.47,9-17.28,16.06-19.18,18-18.35,18.83.48.48,3-.79,5.69-2.82,6.92-5.28,10.51-4.79,5.5.74-3.71,4.1.63,3.17,7.75-1.66s7.56-4.89,9.92-2c1.44,1.74,1.31,2.62-.75,4.89-3.52,3.9-2.17,4.45,6.14,2.54,5.4-1.25,7.61-1.27,8.8-.08,2.08,2.07-3.86,4.44-13.78,5.49-6.94.73-7.3.61-8.18-2.91Zm34.26.58c0-2,7.67-12.9,11.86-16.81a89.42,89.42,0,0,0,8.77-10.47c6-8.27,12.14-14.29,18.61-18.16,2.59-1.55,4.71-3.75,4.71-4.88,0-3.34,16.06-3.63,20.08-.37s2.89,6.11-4.3,10.87c-6.64,4.39-9.95,2.9-4.64-2.09,1.93-1.81,3.51-3.89,3.51-4.62,0-4.05-20.36,5.74-22.28,10.71a22.27,22.27,0,0,1-5,6.45c-2.09,1.92-9.1,9.61-15.57,17.09-10.48,12.12-15.79,16.25-15.79,12.28Zm439.48.08c0-.93-2.9-1.55-7.32-1.57-12.43,0-23.36-5.53-21.36-10.75.38-1,.36-1.78,0-1.78-1.68,0-8.6,4.17-10.28,6.19-2.64,3.18-7.05,2.79-7.05-.63,0-2.72-.17-2.73-5.23-.56-9.13,3.93-21.35,5.83-30.35,4.71-17.68-2.18-23.12-3.17-23.84-4.33-1.42-2.3-3.09-1.17-2.37,1.59,1.16,4.46-2.09,3.23-4.62-1.74-1.27-2.49-2.52-4.77-2.77-5.06s-2.45,1.16-4.88,3.2-5.13,3.49-6,3.2c-2.88-1-2.55-5.39.67-8.81l3.18-3.39-5.7-5.91c-7.29-7.55-10.65-18.37-10.44-33.64.11-7.95.92-12.56,2.93-16.62,1.53-3.1,2.48-6.12,2.11-6.72-1.22-2,12.25-21.34,20-28.75,7.2-6.87,24.35-17.14,28.63-17.14a19.54,19.54,0,0,0,6.1-2.07c2.29-1.14,9-2.82,14.83-3.73,9.19-1.43,12.26-1.32,22,.78,10.4,2.23,20.35,6.22,24.6,9.85a115.63,115.63,0,0,0,9.82,7.52c2.49,1.75,4.53,4.09,4.53,5.19s.53,2,1.18,2,1.87,1.41,2.7,3.14c1,2,1.55,2.35,1.61,1,.14-3.08,5.6-6.2,7.51-4.29,2.31,2.31,4.88,1.81,6.52-1.25,1.36-2.55,1.13-2.69-2.93-1.88-3.42.68-4.26.44-3.75-1.08a3.86,3.86,0,0,1,3.33-2.09,38.73,38.73,0,0,0,6.55-1.21c3-.82,3.68-1.68,3-3.7s.1-3,2.75-4c6-2.27,4.4-4.7-2.35-3.71l-5.93.88,3.84-3.42c3.38-3,3.56-3.57,1.53-4.71-3.15-1.76-1.58-5.1,3.44-7.33,2.5-1.1,3.86-2.58,3.43-3.7-.82-2.13,3.38-7.35,5.92-7.35.92,0,2.87-1.64,4.32-3.66,4.51-6.25,9.22-10.08,11.56-9.37,1.75.54,1.71.35-.21-.88-3-2-3.12-4.71-.21-7.13,1.89-1.57,2.61-1.34,4.85,1.58,1.44,1.88,2.64,2.7,2.66,1.84s1.44-2,3.17-2.54c1.9-.58,2.45-1.24,1.39-1.67-3.27-1.35-1.84-4.67,2.1-4.87,2.11-.11,5.4-.27,7.32-.35,4.57-.2,7,1.6,6,4.36-.54,1.39-.29,1.87.66,1.29,1.64-1,10.58-2.21,22.45-3,4.1-.27,7.77-.81,8.17-1.21s2.06-.24,3.71.34,13.31.92,25.91.74c21.45-.3,23.16-.13,26.92,2.65,3.91,2.9,4.19,2.91,10.56.62,3.6-1.29,7.07-1.83,7.7-1.19,1.62,1.62-9.65,20.26-16.82,27.84-3.26,3.45-5.93,6.75-5.93,7.34s-3,4.11-6.62,7.83-8.29,8.93-10.33,11.59c-3.28,4.28-4,4.63-6.56,3.11-1.82-1.09-3.18-1.22-3.72-.34s0,1.71,1.1,2.12c3.74,1.44,2.32,9.35-2.67,14.94-2.58,2.87-4.68,5.86-4.68,6.62,0,2.14-3.63,1.65-5.62-.75-1.48-1.78-1.27-2.61,1.22-4.94,1.65-1.53,3-3.95,3-5.36a3.84,3.84,0,0,1,3.08-3.38c1.69-.45,2.66-1.22,2.15-1.73-1.86-1.87-4.91.74-10.16,8.7-3,4.49-5.87,8.37-6.5,8.62-2.72,1.12-.78,2.57,2.59,1.93,3-.58,3.55-.28,2.85,1.54-.47,1.24-.25,2.63.5,3.09,2.18,1.35.31,3-4.49,4-4.26.85-4.34,1-1.77,3s2.54,2.17.24,3.55a5.39,5.39,0,0,0-2.44,4.1c0,3-.58,3.45-5.8,4.69-3.27.78-3.63.52-3.12-2.24.32-1.73.21-2.34-.25-1.38a9.75,9.75,0,0,1-3.7,3.29c-2.64,1.42-2.78,1.24-1.86-2.43.55-2.18,1.1-4.53,1.24-5.22s-2.9-1.47-6.74-1.72-9.64-.8-12.9-1.24c-4.74-.63-5.93-.36-5.93,1.34a2.13,2.13,0,0,1-2.1,2.13c-1.15,0-2.09.63-2.09,1.4,0,2.14,9.4,1.65,14-.74,2.36-1.22,4.12-1.52,4.12-.7a1.43,1.43,0,0,1-1.4,1.44,1.39,1.39,0,0,0-1.39,1.39c0,.77,1.22,1.4,2.71,1.4a4.76,4.76,0,0,1,3.7,1.61c.74,1.19-1.79,1.4-9.68.8-6.18-.46-10.68-.26-10.68.48s2.66,1.4,5.92,1.54c13.73.58,20.05,1,22.68,1.67a34.83,34.83,0,0,0,4.53.77c2.4.14,2.21,2.89-.2,2.89s-4.16,3.83-3.72,8.18c.22,2.22-.29,3.1-1.54,2.68-1-.34-2-2.13-2.25-4-1.21-10.38.47-9.66-22.39-9.66-20.49,0-20.63,0-20.55,3.14.1,4.23-2.52,4.82-3.47.78-.86-3.69-6.61-5.25-8.48-2.3-2.66,4.2-1.3,6.38,4.52,7.32s5.75.94,5,6.1c-.42,2.86-.22,6.45.42,8,1,2.4,1.2,2.22,1.28-1.32.06-2.46.59-3.58,1.33-2.79,1.75,1.88,3.32,14.19,1.92,15-2.42,1.5-12.72-9.85-13.7-15.1-.53-2.82-1.83-5.46-2.88-5.86-1.23-.47-1.92-3-1.92-6.87,0-3.37-.61-6.13-1.36-6.13s-1,1.83-.52,4.19c.54,2.71.27,4.18-.77,4.18-.88,0-2-1.83-2.42-4.08-.81-4.06-.87-4.09-12.17-4.55-14.21-.58-16.24-.14-16.24,3.49,0,3.14-4.37,10.1-13.37,21.3-7.18,8.94-9.89,11.64-15.95,15.9-7.38,5.19-10.71,10.43-4.64,7.32a34.85,34.85,0,0,1,6.4-2.24c2.93-.7,3.84-.4,3.84,1.25a3.45,3.45,0,0,1-2.09,3c-3.36,1.29-2.42,4.64,1.74,6.25,4.73,1.84,26.34.92,28.47-1.22,1.14-1.14,2.47-1,5,.7,2.77,1.82,4,1.93,6.11.58,2.34-1.45,2.87-1.18,4.11,2.09,2,5.28.72,7.92-3.21,6.55-3.46-1.2-7.39-1.12-15.36.29-3.45.61-5.23.4-5.23-.63Zm5.58-1.54c0-.77-.94-1.4-2.09-1.4s-2.1.63-2.1,1.4.95,1.39,2.1,1.39S843.78,534.68,843.78,533.92ZM765,528.33c.48-.76.2-1.39-.61-1.39a1.45,1.45,0,0,0-1.48,1.39c0,.77.28,1.4.62,1.4S764.48,529.1,765,528.33Zm4.52-5.13c1-1.39,1.45-4.59,1-7.91-.91-7.27.26-10.67,3.69-10.67a18.56,18.56,0,0,0,6.71-2c3.57-1.85,4.16-1.81,6.23.47s2,2.65-3.32,4.72c-3.08,1.21-5.6,1.63-5.6.92a1.34,1.34,0,0,0-1.4-1.28c-.76,0-1.39,2.19-1.39,4.88,0,5.38.27,5.58,4.48,3.33,2.33-1.25,3.15-1.11,4.17.71.88,1.57,2,1.89,3.63,1.06,1.3-.66,6.45-2,11.43-3,8.46-1.72,9.67-2.47,17.85-11,7.79-8.13,19.56-24.84,22-31.26.77-2-.2-2.32-6.85-2.32-4.25,0-8.13-.63-8.6-1.4S821.47,467,820,467c-4.74,0-3-3.51,6.34-12.43,8.77-8.43,12.35-9.89,10.93-4.49-.57,2.19-.07,2.51,3,1.92,2.5-.48,3.43-1.36,2.9-2.74a12,12,0,0,1-.77-3.31c0-.7-2.59-1.28-5.75-1.28h-5.75l4.29-4.39c4.82-4.92,4.56-6.3-2.39-12.91-3.26-3.1-4.69-3.69-6.12-2.5-1.9,1.58-8,.77-8-1.05,0-2.09,1.9-2.78,3.64-1.34a3.13,3.13,0,0,0,3.28.6c3.12-1.93-9.92-10.06-23.47-14.62-13.88-4.67-25.74-4.05-47,2.45-12.76,3.91-32.77,17.92-32.77,22.95,0,1.34-.83,2.44-1.84,2.44s-3.22,2.74-4.89,6.08c-3.6,7.21-3.71,8-.94,7,1.15-.44,2.09-.15,2.09.65s1.73,1.65,3.84,1.89c5.55.64,4.86,4.31-1,5.53-2.75.56-5.08.44-5.35-.3-1.11-3.09-4.33-.83-7,5-3.31,7-4.18,26.5-1.41,31.67a20.47,20.47,0,0,1,1.91,6.28c.21,1.88,2.5,5.72,5.09,8.53s4.89,5.4,5.09,5.74,1.11-.12,2-1,3.79-1.65,6.4-1.65c3.7,0,6.34-1.44,11.93-6.5a98.55,98.55,0,0,1,11.72-9.2c4.08-2.44,6.15-5.46,3.48-5.08-1.33.2-7.32-1.71-7.32-2.34,0-2.18,3.62-7.57,5.09-7.57,1.07,0,1.71-1.27,1.52-3-.26-2.36.69-3.28,4.39-4.27,7.7-2.06,7.79-1.44,2.68,19-.8,3.22-1.78,4.8-2.37,3.84-.7-1.14-2.44-.47-5.72,2.2-15.6,12.71-22.33,18.87-22.33,20.43,0,1,2.17,2.44,4.83,3.25,3.81,1.17,5.18,1.08,6.45-.46a7,7,0,0,1,4.76-1.95,36.67,36.67,0,0,0,9.07-2.09c11.71-4.13,12.4-1.87,1.58,5.18l-6.46,4.2,9.07-.85c6.09-.58,9.63-1.63,10.79-3.2ZM774,482.38c0-7.86,2.12-14.62,4.18-13.34.77.47,1.4,2.15,1.4,3.73,0,2.74.16,2.77,3.49.58s3.49-2.09,3.49,0c0,1.24-1.89,3-4.19,3.83s-4.26,2.38-4.36,3.37a26.08,26.08,0,0,1-.52,3.18,26.66,26.66,0,0,0-.52,3.49c-.1,1.15-.81,2.09-1.57,2.09s-1.4-3.1-1.4-6.89Zm-56.67-.72c-.55-1.42-2-1.79-4.84-1.22-4,.8-5.83-1.38-2.32-2.8,1-.41.66-.75-.81-.82-2.13-.09-2.39-.85-1.6-4.64.52-2.5,1.77-5.4,2.78-6.45,2.2-2.31,9.42-2.56,10.15-.35a2.74,2.74,0,0,0,2.5,1.57c2.54,0,2.54,2,0,4.08-1.41,1.17-2.23,1.2-2.91.1s-1.59-1-3.14.28c-1.8,1.48-2.31,1.48-2.81,0s-1.06-1.43-2.56-.18c-3.06,2.55-2.3,4.19,1.61,3.48a5.86,5.86,0,0,1,5.89,2.07c1.28,1.49,3.44,2.71,4.81,2.71a2.32,2.32,0,0,1,2.48,2.09c0,2.8-8.17,2.85-9.24.06Zm75.14-10.6c0-9.2.25-9.81,3-9.42,1.92.28,2.8,1.27,2.54,2.86-.57,3.42,3.4,3.09,4.3-.34,1.21-4.64,5.76-3.33,9.1,2.63,3.56,6.33,3.7,7.13,1.18,7.13-1,0-2.58-1.57-3.46-3.49-2.13-4.69-4.32-4.39-5.35.73-1.06,5.31-2.94,6.53-5.24,3.39-1.64-2.23-1.93-2.06-3.33,1.95-.84,2.42-1.82,4.4-2.17,4.4s-.61-4.43-.57-9.84Zm-12.89-5.35c0-1.43,5.07-3,6.16-1.91a1.69,1.69,0,0,1,0,1.95c-1,1.58-6.16,1.55-6.16,0Zm-46.23-1.9c-.76-6.8-.64-12.4.29-13,1.58-1,2.21.58,3.3,8.08.79,5.49.58,6.63-1.22,6.63A2.28,2.28,0,0,1,733.37,463.81Zm15.24-6.19c-1.43-.37-2.77-2.6-3.31-5.48-1-5.42,0-7.48,2.52-5,2.25,2.26,3.88,2.07,3.88-.44a2.1,2.1,0,0,1,2.09-2.1c2.26,0,2.6,2.7,1.22,9.6-.85,4.27-1.59,4.67-6.4,3.4Zm-8.83-3.32c-1.5-2.43.21-2.95,2.12-.64,1.11,1.32,1.21,2.13.29,2.13a3.27,3.27,0,0,1-2.41-1.49Zm20.74-3.54a3,3,0,0,1,1.09-3.44,4.8,4.8,0,0,0,1.95-3.7c0-1.36.32-2.37.7-2.23,8.69,3.13,9.53,4.17,7.52,9.4-1.16,3-10.1,3-11.26,0Zm-37.19-5.67c-1.66-1.66-.93-5.27,1.8-8.82,3.25-4.23,4.23-3.43,5,4,.52,5.22.29,5.74-2.63,5.74-1.77,0-3.63-.42-4.14-.93Zm61-1c-1.16-3,.45-6.76,2.59-6,1,.32,1.74,2,1.74,3.83,0,3.83-3.11,5.41-4.33,2.21Zm-47.06-9.54c-1.81-1.32-2.17-2.87-1.47-6.33,1.16-5.83,2.81-5.24,6.13,2.18,2.49,5.56,2.5,5.9.19,5.9A9.76,9.76,0,0,1,737.28,434.5Zm8.37-3.36c-1.39-1.4-1.12-10.23.32-10.23,1.61,0,2.94,3.51,2.94,7.78C748.91,432,747.53,433,745.65,431.14Zm12.5-5.28c-3.66-5.59-2.48-9,1.34-3.91,1.66,2.23,2,2,3.43-2.09.88-2.49,2.49-4.54,3.56-4.54s2,.34,2,.75c0,2.09-4,9.94-5.88,11.49S760.05,428.76,758.15,425.86ZM797,422.18c-1.24-2,.58-3.65,5.3-4.81,3-.74,3.84-.45,3.84,1.24,0,3.75-7.28,6.59-9.14,3.57ZM780.16,416c0-4.42.37-4.88,3.93-4.88a14.91,14.91,0,0,0,6.66-1.71c3.08-1.93,6.66.25,5,3-.79,1.28-13.58,8.47-15.08,8.47C780.37,420.91,780.16,418.71,780.16,416Zm-1.93,107.4c2.88-3.47.17-4.27-3.16-.94-2.46,2.46-2.63,3.06-.83,3.06A6.09,6.09,0,0,0,778.23,523.42ZM753.87,522c2.61-2.08,2.57-2.12-.78-1.22a29.24,29.24,0,0,0-5.58,2.12c-1.67,1-1.51,1.19.78,1.23A10.43,10.43,0,0,0,753.87,522Zm37.89-.11c6.68-2.55,8.06-5,2.14-3.86-2.11.42-5.09.87-6.63,1-2.73.24-4.81,2-4.86,4.08C782.38,524.73,785.26,524.35,791.76,521.87Zm-72.15-2.17c0-1.84-3.17-.69-3.87,1.4-.34,1,.3,1.33,1.66.81s2.21-1.46,2.21-2.21Zm5.58-3.92a1.36,1.36,0,0,0-1.31-1.4,3,3,0,0,0-2.18,1.4c-.47.77.12,1.39,1.31,1.39S725.19,516.55,725.19,515.78Zm60.69-11.16c.48-.77.2-1.4-.61-1.4a1.44,1.44,0,0,0-1.48,1.4c0,.76.28,1.39.61,1.39S785.41,505.38,785.88,504.62Zm100.71-18.4c-.45-1.12-.78-.78-.84.84-.06,1.47.27,2.3.73,1.83a2.81,2.81,0,0,0,.11-2.67Zm-126.52-5.94a4.22,4.22,0,0,0-.89-2.6c-1.2-1.2-6,7.75-5,9.37s5.9-4.26,5.9-6.77Zm126.66-14.51c.33-1-1.13-1.61-3.77-1.61-4,0-5.72,2.29-3.46,4.55C880.68,469.9,886.09,467.69,886.73,465.77Zm17.15,2.51c1-.65,1.54-1.55,1.09-2-1.14-1.14-12.36.77-12.36,2.1s8.88,1.38,11.27-.1ZM869.59,467c-.47-.77-6.29-1.35-13-1.3q-12.12.11-9.34,1.3C851.3,468.68,870.66,468.68,869.59,467Zm-37-1.89c-3.65-1.94-6.19-1.63-4.82.59.44.71,2.49,1.29,4.55,1.28l3.76,0-3.49-1.85Zm-7-.9a1.4,1.4,0,1,0-1.39,1.39A1.4,1.4,0,0,0,825.64,464.16Zm75-.88c1.73-.47,3.14-1.75,3.14-2.86s-.57-1.65-1.28-1.22-2.23-.15-3.39-1.31a9.2,9.2,0,0,0-5.69-2.1c-6.58,0-3.47,7.58,3.39,8.26a20.9,20.9,0,0,0,3.83-.77Zm-14.35-5c-.88-2.3-5.9-4.23-7.86-3-2.36,1.46-1,4.24,2.68,5.63C885.46,462.5,887.52,461.46,886.28,458.25Zm-43.8.15c1.24-2.32,1.17-3.23-.3-4.15-1.24-.78-2-.48-2.34.87-.25,1.13-2,2.06-3.83,2.06-2.08,0-3.39.81-3.39,2.09,0,3.4,8,2.7,9.86-.87Zm26.41-.52c0-2.29-5.19-3.41-15.34-3.3-5.44.06-6.86.42-4.89,1.25,2.38,1,2.43,1.17.35,1.25-1.34.06-2.44.88-2.44,1.84,0,1.29,2.91,1.63,11.16,1.29S868.89,459.26,868.89,457.88Zm7,.08c0-.34-.63-1-1.4-1.48s-1.39-.19-1.39.62a1.45,1.45,0,0,0,1.39,1.48C875.24,458.58,875.87,458.3,875.87,458Zm34.88-.78c0-.77-.94-1.39-2.09-1.39s-2.1.62-2.1,1.39.94,1.4,2.1,1.4S910.75,458,910.75,457.18Zm-75.34-2.79c0-.77-.94-1.4-2.1-1.4s-2.09.63-2.09,1.4.94,1.4,2.09,1.4S835.41,455.16,835.41,454.39Zm92.89-1.58c.43-.7,0-1.11-1.06-.9a1.15,1.15,0,0,1-1.46-1.46c.21-1-.28-1.44-1.09-.94a21.61,21.61,0,0,1-6,1.52c-2.47.33-7.32,1.15-10.77,1.82-5.47,1.06-4.6,1.22,6.63,1.23,7.1,0,13.27-.56,13.71-1.27Zm15.61-.92c.44-1.33-.46-1.56-3.38-.88-3.83.89-3.87.84-1.18-1.29,3.58-2.85,2.3-2.89-3.28-.11-4.93,2.46-5.87,4-1.61,2.69,1.68-.53,2.79-.25,2.79.7,0,2.14,5.91,1.16,6.66-1.11Zm-85.15-4.48c2-1.23,1.36-1.37-2.88-.69-2.94.47-6.1.23-7-.54-2.69-2.23-4.9.09-3.54,3.71,1.13,3,1.38,3.09,6.08,1.12A64.58,64.58,0,0,0,858.76,447.41Zm8.51,3.4c.27-.22-.07-1.38-.74-2.59-1.11-2-1.52-2-4.32,0-4.27,3-3.89,5,.75,3.93a23.23,23.23,0,0,0,4.31-1.32Zm17,.83c0-.75-1.89-2.34-4.19-3.53-3.92-2-4.18-2-4.18.43a6.06,6.06,0,0,0,.93,3.52C878.24,453.51,884.24,453.16,884.24,451.64Zm10.51.05c-.44-.73.31-2,1.67-2.88,1.76-1.11,2-1.77.72-2.29-3.32-1.4-1.76-3.62,2-2.9,2.08.4,7.41.05,11.85-.77,6.42-1.2,8.8-1.11,11.66.42,3.64,2,7.52.87,8.61-2.38.5-1.51-13.15-3.23-25.43-3.21-7.87,0-17.74,3-18.62,5.6-.31,1,.09,1.32.91.82a1.7,1.7,0,0,1,2.35.5c.48.78-.1,1.42-1.3,1.42-2.15,0-3,4.26-1.24,6,1.44,1.45,7.71,1.1,6.79-.37Zm10.42-3.05c0-.76-.63-1-1.4-.53a3.06,3.06,0,0,0-1.4,2.26c0,.77.63,1,1.4.53A3,3,0,0,0,905.17,448.64Zm27.14-1.32a3.81,3.81,0,0,0-3-1.3c-1.78,0-1.86.39-.46,2.08,1.8,2.17,4.84,1.48,3.44-.78Zm9.71-2.15a3.94,3.94,0,0,0,2.21-3.5c0-2.3-.37-2.42-2.79-.91-1.53,1-2.79,2.53-2.79,3.5,0,2,.31,2.09,3.37.91Zm-86.23-3c2.92-3.85,2.27-4.48-2.26-2.22-2.31,1.15-3.84,2.67-3.41,3.38C851.36,445.34,853.76,444.86,855.79,442.18Zm8.92-.33c0-2.65-.14-2.66-2.79-.39a14.65,14.65,0,0,0-2.8,2.78c0,.21,1.26.38,2.8.38A2.46,2.46,0,0,0,864.71,441.85Zm19,1.16c.64-1,.38-1.23-.69-.57s-2.74-.17-4.21-1.87c-2.91-3.35-4.3-3.71-4.3-1.11,0,4.31,7.06,7,9.2,3.55Zm53.58-1.18c1.77-1.53,2.65-2.77,2-2.76-1.88.05-8.48,5.49-6.7,5.52C933.35,444.61,935.48,443.37,937.25,441.83Zm-87.64-8.37c.63,0,1.14-1,1.14-2.24,0-1.47-.76-2-2.2-1.4a12.62,12.62,0,0,1-3.3.85c-.6,0-1.09,2.67-1.09,5.93v5.93l2.15-4.53c1.19-2.5,2.67-4.54,3.3-4.54Zm103,5.5a1.36,1.36,0,0,0-1.39-1.31c-.77,0-1.4,1-1.4,2.17s.63,1.79,1.4,1.32A3,3,0,0,0,952.6,439ZM853.54,437c0-1.51,1.2-1.81,4.89-1.21,3.17.51,4.88.23,4.88-.79s-1.73-1.59-3.84-1.6c-3,0-3.37-.32-1.74-1.37,1.86-1.21,1.86-1.36,0-1.36-2.9,0-4.88,1.51-6.82,5.19-1.37,2.61-1.29,3.14.49,3.14a2.09,2.09,0,0,0,2.15-2Zm35.9,1.16a2.82,2.82,0,0,0-2.67-.11c-1.12.45-.79.78.84.84,1.47.06,2.29-.27,1.83-.73Zm45.95-5.09c-.39-1-.7-.17-.7,1.75s.31,2.7.7,1.74A5.35,5.35,0,0,0,935.39,433.11Zm8.14,3.14c.48-.76.2-1.39-.61-1.39a1.45,1.45,0,0,0-1.48,1.39c0,.77.28,1.4.62,1.4S943.06,437,943.53,436.25Zm-67.66-2.79c0-1.53-.59-2.79-1.31-2.79s-1.22,1.26-1.1,2.79.7,2.79,1.31,2.79S875.87,435,875.87,433.46Zm52.77.45c-.37-1.91-2.27-2.38-10.22-2.52-9.53-.18-14,1.13-12.46,3.63.42.68,5.8,1.23,11.95,1.23,9.72,0,11.12-.3,10.73-2.34Zm4.43.95a1.45,1.45,0,0,0-1.48-1.4c-.81,0-1.09.63-.61,1.4s1.14,1.39,1.47,1.39S933.07,435.63,933.07,434.86Zm22.08-1.4c.58-1.74.33-1.79-1.49-.29s-2.32,1.47-2.91,0c-.44-1.11-.76-.82-.83.74C949.79,437,954.11,436.61,955.15,433.46Zm-73.2-.7c-.85-2.21-3.29-2.9-3.29-.93a3.29,3.29,0,0,0,3,3c.61,0,.75-.94.31-2.1Zm13.43-.34c0-1.4-.47-1.85-1.07-1.05a16.73,16.73,0,0,1-2.3,2.44c-.7.58-.22,1.05,1.06,1.05a2.36,2.36,0,0,0,2.31-2.44Zm6.38.39c1.49-1.13,2-2.07,1.23-2.09s-2.7.87-4.19,2-2,2.07-1.23,2.09,2.7-.87,4.19-2Zm-12.64-.74c.47-.77.2-1.4-.61-1.4a1.44,1.44,0,0,0-1.48,1.4c0,.76.28,1.39.61,1.39S888.65,432.83,889.12,432.07Zm53.71,0c0-.77-.27-1.4-.61-1.4s-1,.63-1.48,1.4-.19,1.39.62,1.39A1.44,1.44,0,0,0,942.83,432.07Zm-79.54-7.33c0-1.79-3.74-1.14-5.46.93-1.31,1.57-1.13,2.09.87,2.51A3.69,3.69,0,0,0,863.29,424.74Zm63.82,2.79a2.58,2.58,0,0,0-2.91-1.33,1.78,1.78,0,0,1-2.29-1.75c0-1.5-1.38-2.15-4.54-2.14-5.89,0-14.63,2.46-15.86,4.44-.59,1-.33,1.17.7.54,3.46-2.14,9.64-3.24,11.49-2.05,1.62,1.05,1.6,1.46-.16,2.62-1.5,1,.21,1.38,6,1.4s8-.46,7.53-1.73Zm6.54.9a3.61,3.61,0,0,0,2.21-3.07c0-1.73-.37-1.85-1.67-.55-2.42,2.42-4.57,2.06-2.51-.42,1.42-1.71,1.32-2.09-.53-2.09-2.42,0-2.78,1.22-1.42,4.77,1,2.51.95,2.5,3.92,1.36Zm-55.79-2.87c1.07-2.79-1.22-5.64-2.66-3.31-.61,1-1.57,1.11-2.6.29s-2.87-.78-4.41-.17c-2.43,1-2.3,1.14,1,1.23,2.44.06,3.84.86,3.84,2.19,0,2.84,3.67,2.66,4.78-.24Zm5.54.69c-.4-.64-.06-1.16.76-1.16a1.44,1.44,0,0,0,1.47-1.39c0-2.24-2-1.62-3.71,1.16-1.26,2-1.19,2.56.3,2.56,1,0,1.57-.53,1.18-1.17Zm58-1.24a1.36,1.36,0,0,0-1.39-1.31c-.77,0-1.4,1-1.4,2.17s.63,1.79,1.4,1.31A3,3,0,0,0,941.44,425Zm-44.65-1.4a1.35,1.35,0,0,0-1.39-1.31c-.77,0-1.4,1-1.4,2.18s.63,1.78,1.4,1.31A3,3,0,0,0,896.79,423.61Zm-4.88.09c.47-.77.2-1.4-.61-1.4a1.44,1.44,0,0,0-1.48,1.4c0,.76.28,1.39.61,1.39S891.44,424.46,891.91,423.7Zm60.69,0a1.4,1.4,0,1,0-1.39,1.39A1.4,1.4,0,0,0,952.6,423.7Zm-21-3.84a8.24,8.24,0,0,0-1.52-3.14c-1.29-1.79-1.4-1.75-.76.26.42,1.29,0,2.66-.91,3s-.57.73.77.79,2.44-.36,2.42-.94Zm26.53-3.47c0-1.6-2-1.28-3.9.61-2.67,2.67-1.94,4.1,1.11,2.19,1.54-1,2.79-2.22,2.79-2.8Zm-78.1,1c2.08-2.5.64-4.67-1.61-2.42a3.58,3.58,0,0,1-3.47.81c-1.06-.41-1.92-.1-1.92.69,0,1.28,2,2.65,4.36,2.94.48.06,1.67-.85,2.64-2Zm14.84,0c1.26-3.27-.1-3.66-2-.58-1.07,1.73-1.17,2.73-.25,2.73s1.82-1,2.28-2.15Zm20.8.62c1-1.63-5.36-4.05-10.64-4.05-3.13,0-4.1.64-4.1,2.71,0,2.33,1,2.7,7,2.66,3.84,0,7.33-.63,7.76-1.32Zm4.79-.56c0-1.15-.6-2.09-1.35-2.09s-1,.94-.55,2.09,1,2.09,1.36,2.09S920.51,418.57,920.51,417.42Zm4.89-.7c.47-.77.19-1.39-.62-1.39a1.43,1.43,0,0,0-1.47,1.39c0,.77.27,1.4.61,1.4S924.92,417.49,925.4,416.72Zm43.57-.84a2.78,2.78,0,0,0-2.68-.11c-1.11.44-.78.77.85.84,1.47.06,2.29-.27,1.83-.73Zm-91.66-6.83c1.89-2.58,1.86-2.65-.39-.88-1.35,1.06-2.45,2.57-2.45,3.37s.18,1.2.4.88S876.18,410.58,877.31,409.05Zm34.83.56a3.72,3.72,0,0,0-2.79-3.65c-3.25-.85-3.76-3.19-.7-3.19,4.06,0,2.05-3.49-2.09-3.64s-6,2.8-2.59,3.94c1.2.4,1.2,1.27,0,3.51-2.56,4.78-1.9,6,3.29,6,4,0,4.88-.52,4.88-2.93Zm12.56,2.31c0-.34-.63-1-1.4-1.48s-1.39-.19-1.39.62a1.45,1.45,0,0,0,1.39,1.48C924.07,412.54,924.7,412.26,924.7,411.92Zm21.62-.78c.48-.77.24-1.4-.53-1.4a3.06,3.06,0,0,0-2.26,1.4c-.47.77-.23,1.4.54,1.4A3,3,0,0,0,946.32,411.14Zm14,0c.47-.77.19-1.4-.62-1.4a1.45,1.45,0,0,0-1.48,1.4c0,.77.28,1.4.62,1.4S959.8,411.91,960.28,411.14Zm-67.67-1.4c0-.76-.28-1.39-.62-1.39s-1,.63-1.47,1.39-.2,1.4.61,1.4A1.45,1.45,0,0,0,892.61,409.74Zm26-3.13c-.39-1-.71-.18-.71,1.74s.32,2.7.71,1.74A5.45,5.45,0,0,0,918.65,406.61ZM974.13,409c1.47-1.12,2.3-2.42,1.83-2.89s-2.27.47-4,2.08C968.41,411.52,970,412.13,974.13,409Zm7.26-3c-.57-.57-1.62-.11-2.33,1-2.15,3.39-1.51,4.9,1,2.38C981.37,408.08,982,406.55,981.39,406Zm-53.9.49c0-.94-1.26-1.81-2.79-1.92s-2.79.56-2.79,1.5,1.25,1.8,2.79,1.92S927.49,407.41,927.49,406.47Zm18.34-.21a2.18,2.18,0,0,0-1.5-1.83c-.82-.27-1.5.55-1.5,1.83s.68,2.1,1.5,1.82A2.16,2.16,0,0,0,945.83,406.26Zm16.5.75c1.13-.71,1.62-1.72,1.1-2.24-1.27-1.28-5.25.34-5.25,2.14s1.45,1.81,4.15.1Zm8.41-1.72c0-1.83-3.17-.68-3.87,1.4-.34,1,.3,1.34,1.66.81s2.21-1.46,2.21-2.21Zm-98.52-3.57c.47-1.34,1.2-3.14,1.61-4q.75-1.56-3.14-.82c-2.14.41-3.11,1-2.15,1.33,2.77.93,2,3.14-1,3.14-1.53,0-2.79.63-2.79,1.4,0,2.45,6.61,1.53,7.52-1Zm17,0c2.67-3.52,2.37-4.53-1.35-4.53-2.76,0-3.19.56-2.63,3.49C886.08,404.81,886.79,405,889.27,401.72Zm38.8.2c3.89-1.49,2.53-4.73-2-4.73-3.25,0-4.18.62-4.18,2.79C921.91,402.8,924,403.47,928.07,401.92Zm43-3.78c2.1.42,3.48,1.32,3.06,2-1.16,1.86,4.17,1.48,6.09-.44,2.4-2.4,2.08-4.58-.37-2.55-1.63,1.35-3.36,1.2-8.45-.75-5.65-2.16-6.65-2.2-8.47-.38a4.42,4.42,0,0,0-1.1,4.58c.9,2.35,1.1,2.33,3.19-.36,1.64-2.1,3.25-2.66,6.05-2.1Zm16.12.45c1.31-2.29,3.48-4.18,4.82-4.18,1.51,0,2.44-1.08,2.44-2.8,0-3.64-1.63-3.53-5.15.35-4.74,5.22-7.89,10.81-6.1,10.81.89,0,2.69-1.88,4-4.18Zm-43,.69c0-1.15-.63-2.09-1.4-2.09s-1.39.94-1.39,2.09.63,2.09,1.39,2.09S944.23,400.43,944.23,399.28Zm-53-6.28c0-.76-1.22-1.39-2.71-1.39s-3.09.63-3.57,1.39.69,1.4,2.71,1.4S891.21,393.77,891.21,393Zm19.53.38a7.68,7.68,0,0,1-3.12-2.33c-.63-.95-1-.6-1,.91s1,2.4,3.12,2.33,2.44-.38,1-.91Zm16.74-1.07c0-2.35-.25-2.45-3.37-1.25s-2.74,3.34.58,3.34C926.24,394.4,927.48,393.47,927.48,392.31ZM945.17,391c-.73-2.21-5.13-2.6-5.13-.45,0,1,1.26,1.89,2.81,1.89S945.44,391.75,945.17,391Zm21.06-.49c.3-.91-.44-1.65-1.66-1.65a2.21,2.21,0,0,0-2.2,2.21c0,2.46,3,2,3.86-.56Zm9.32-.41c.81-.76.36-1.24-1.15-1.24a8,8,0,0,0-4.74,2.27c-2.11,2.11-2,2.2,1.14,1.24A15.33,15.33,0,0,0,975.55,390.06Zm10.53.85c1-1.17,1.12-2.09.35-2.09a5.59,5.59,0,0,0-3.14,2.09c-1,1.17-1.12,2.09-.34,2.09A5.55,5.55,0,0,0,986.08,390.91Zm-32.78-.7c.47-.77.19-1.39-.62-1.39a1.43,1.43,0,0,0-1.47,1.39c0,.77.27,1.4.61,1.4S952.82,391,953.3,390.21Zm-50.39-3.56c.47-1.24.24-1.8-.55-1.31A3,3,0,0,0,901,387.5C901,389.51,902,389.07,902.91,386.65Zm22.76,1.06c2.41-1.53-.06-4.74-2.83-3.67a3.55,3.55,0,0,0-2.33,2.83c0,2.12,2.51,2.53,5.16.84ZM884.93,386c.48-.77.2-1.4-.61-1.4a1.45,1.45,0,0,0-1.48,1.4c0,.76.28,1.39.62,1.39S884.46,386.79,884.93,386Zm56.51,0c0-.77-1.73-1.35-3.84-1.3-3.4.09-3.52.23-1.05,1.3C940.37,387.66,941.44,387.66,941.44,386Zm40.68-.35c1.41.37,2.57,0,2.57-.84s-1-1.12-2.32-.63c-1.56.6-2,.36-1.32-.74,1.25-2-1.22-2.11-4.82-.18-1.89,1-2.7,1-2.7-.05s-.89-1-2.92.07a10.2,10.2,0,0,1-6.28.71c-1.85-.46-3.36-.24-3.36.49,0,1.84,5.16,2.41,12.43,1.37,3.38-.48,7.3-.57,8.72-.2Zm9.54-2.53a1.35,1.35,0,0,0-1.39-1.31c-.77,0-1.4,1-1.4,2.18s.63,1.78,1.4,1.31A3,3,0,0,0,991.66,383.15Zm8.49,1.48c.7,0,1.28-1.22,1.28-2.72a5.18,5.18,0,0,1,2.43-4.08c2.86-1.6,1.46-3.69-1.67-2.48a3.9,3.9,0,0,0-2.15,3.49c0,1.46-1.42,3.71-3.14,5-2.42,1.81-2.56,2.17-.59,1.57a17.81,17.81,0,0,1,3.84-.78Zm-111.73-4.88c0-2.25-1.28-2.59-4.76-1.25-2.84,1.09-1.46,3.34,2.05,3.34C887.2,381.84,888.42,380.9,888.42,379.75Zm20.66-.56c.47-1.45-.21-1.74-2.61-1.11-1.79.47-4.07.18-5.07-.65-2.32-1.92-2.39.49-.09,2.79S908.23,381.77,909.08,379.19Zm58.47-1.39a10.54,10.54,0,0,0,1.75-3c.08-1.38-20.22.92-23,2.61-2.33,1.41-1.76,1.55,3.59.83,4.89-.65,6.79-.33,8.22,1.39,2.13,2.57,6.76,1.66,9.44-1.86ZM955,379.6a2.82,2.82,0,0,0-2.67-.11c-1.12.45-.79.78.84.85,1.47.06,2.29-.27,1.83-.74Zm26.19-1.94c3.22-3.57,1.06-3.57-3.49,0-2.54,2-2.88,2.73-1.26,2.76,1.22,0,3.36-1.23,4.75-2.76Zm4.18,1.39c.48-.77.2-1.39-.61-1.39a1.44,1.44,0,0,0-1.48,1.39c0,.77.28,1.4.62,1.4S984.91,379.82,985.38,379.05Zm9.31-.91c3.71-3.36,3.15-5.12-1.28-4-5.15,1.27-7.82,3.93-3.14,3.14,1.92-.33,2.7-.32,1.74,0-1.81.62-2.46,3.18-.81,3.18.52,0,2.09-1,3.49-2.31Zm-18.37-1.88c1.91-1.5,3-2.74,2.37-2.76-1.51,0-9.35,4.06-9.35,4.89C969.34,379.93,973.08,378.79,976.32,376.26Zm-69.22-5c.42-1.09.28-2-.31-2-1.39,0-4.42,3-4.42,4.43C902.37,375.44,906.27,373.43,907.1,371.27Zm32.24.4c5.37-.16,10.16-.84,10.65-1.5s3.23-.43,6.11.51a15,15,0,0,0,10.63.11c3-.89,5.4-2.19,5.4-2.88s-2.33-.3-5.18.89c-3.56,1.49-5.35,1.69-5.7.63-.7-2.1-25-2-35.43.14-9.3,1.92-11.11,4.65-2.17,3.29,3.26-.5,10.32-1,15.69-1.19Zm36.93-.94c1.13-.71,1.76-1.59,1.4-2s-1.88.23-3.37,1.32C971.33,372.27,973,372.81,976.27,370.73Zm10.51-1.45c1.39-1.53,2.07-2.79,1.52-2.79-2,0-6.4,2.92-6.4,4.24C981.9,372.92,984.07,372.27,986.78,369.28Zm11.85,1.44c1.59-1,1.69-1.7.44-3-2.22-2.22-6.18-.55-5.14,2.17C994.88,372.4,995.73,372.55,998.63,370.72Zm-92.07-4.1c0-1.42-3.57-1.21-5.08.3-.53.53.39,1,2,1S906.56,367.32,906.56,366.62Zm11.16-1.8c0-1.3.37-1.3,1.67,0,2.07,2.07,9.49,2.22,9.49.2,0-.82-.58-1.12-1.3-.68a1.54,1.54,0,0,1-2.11-.52c-.45-.72-2.54-1.09-4.63-.81s-4.29.54-4.87.6c-1.58.14-1.25,2.88.35,2.88a1.56,1.56,0,0,0,1.4-1.67Zm19.15.83a2.82,2.82,0,0,0-2.67-.11c-1.12.45-.79.78.84.84,1.47.07,2.29-.26,1.83-.73Zm23.4-1.24c-3.6-1.22-14.65-1.62-14.65-.53,0,.67,3.61,1.17,8,1.11s7.4-.32,6.63-.58Zm18.83-.71c1.87-1.2,1.87-1.35,0-1.35a9.25,9.25,0,0,0-4.18,1.35c-1.86,1.21-1.86,1.36,0,1.36A9.15,9.15,0,0,0,979.1,363.7Zm18.14-1.39a1.36,1.36,0,0,0-1.31-1.4,3,3,0,0,0-2.18,1.4c-.47.77.12,1.39,1.32,1.39S997.24,363.08,997.24,362.31Zm-84.76-2.38a20,20,0,0,0-6.27,0c-1.73.33-.32.6,3.13.6s4.87-.27,3.14-.6ZM425.21,531.77c0-2.26,2.59-7.4,6.41-12.76,4.92-6.89,6.21-9.77,5.55-12.38-.69-2.77-.32-3.41,2-3.41,3.12,0,3.61-1.43,1.3-3.75-1-1-1-1.82-.16-2.35,2.16-1.34,4.92,3,3.67,5.73a19.6,19.6,0,0,0-1.35,4.69c-.13,1.22-2.92,6.16-6.19,11s-6.38,10.36-6.9,12.33c-1.34,5-4.3,5.62-4.3.92Zm94.21,0c-2.33-1.75-2.49-2.51-1-4.83,2.33-3.74.07-3.47-6.11.73s-10.33,4.48-11.34.65c-.66-2.54-1.05-2.64-3.7-.92-5.58,3.61-10.06,3.92-13.83,1-4.49-3.53-9.08-3.53-12.83,0a17.85,17.85,0,0,1-7.39,3.66c-5.81,1.16-7.27-2.13-3.23-7.27,1.61-2.05,2.92-4.19,2.92-4.76,0-2.22-10.08,2.56-14.57,6.92-4.68,4.53-7.75,4.74-7.75.51,0-1.21,2.24-4.31,5-6.9,3.79-3.57,5.78-4.5,8.3-3.87,6.5,1.64,13.54-2.23,24-13.19,7.83-8.21,10.46-10.19,11.76-8.9,2.51,2.52-.53,7.16-9.27,14.14-4.1,3.27-7.84,7.47-8.3,9.33s-1.87,3.38-3.11,3.38a6.18,6.18,0,0,0-4.12,2.44c-4.15,5.47-1.24,6.11,4.78,1.05,3.23-2.72,5.09-3.3,8.46-2.62a10.22,10.22,0,0,0,8-1.53c2.74-1.8,4-2,5.24-.79s.73,2.26-1.89,4.28c-1.92,1.48-2.73,2.7-1.81,2.71,3.09.06,9.43-3.25,15.6-8.16,5.84-4.63,6.21-4.73,8-2.25,2.57,3.51,2.42,4.5-1,6.32-1.6.86-2.62,1.85-2.26,2.21,1.28,1.29,11.87-5.26,18.57-11.47,3.76-3.49,8.56-7.6,10.67-9.13,3.42-2.49,3.94-2.55,4.71-.55.48,1.25-.24,3.45-1.62,5-2.42,2.67-2.36,2.74,2.54,2.74,4.41,0,7.88,1.95,6.29,3.54-.31.3-4,.67-8.29.81s-8.62.94-9.7,1.79c-3.19,2.5-11.25,12.24-10.63,12.86.31.31,2.84-.38,5.62-1.54,5.59-2.34,10.73-2.77,10.73-.91,0,1.2-10.72,5.81-13.3,5.73a10.87,10.87,0,0,1-4.11-2.13Zm32.75-1.11c0-2.78,9.58-14.85,11.78-14.85,3.12,0,10.55-7.39,10.55-10.5,0-3.6,6.52-9.92,17.2-16.67,6.88-4.36,9.45-5.18,16.69-5.38s8.65.17,9.06,2.18c.65,3.18-7.81,10.88-15.79,14.38-3.42,1.51-6.21,3.68-6.22,4.83,0,1.72-22.94,25.11-24.62,25.11-2.48,0,1.15-4.87,9.57-12.85s9.84-9.94,8.57-12c-.83-1.32-2.22-2.4-3.09-2.4s-8.42,6.75-16.79,15-15.61,15-16.07,15-.84-.85-.84-1.89Zm50.49-35.36c6.66-3.62,11.41-8.79,8.08-8.79-5.68,0-14.21,3.65-18.23,7.8L587.9,499h3.92C594,499,598.85,497.34,602.66,495.27ZM575.9,530.08c0-1.41,12.47-6.47,13.47-5.47s-8.06,6.5-11,6.51C577,531.12,575.89,530.66,575.9,530.08Zm17-4.19c-1-1.88-.17-3.34,3.44-6.41,3.36-2.86,4.67-3.38,4.67-1.86a3.05,3.05,0,0,1-1.74,2.74c-1,.34-1.35,1-.87,1.57s4.75-1,9.49-3.42c8.67-4.41,12.66-4.62,12.66-.68,0,1.33-1.28,2.13-3.41,2.13-1.87,0-3.82.67-4.33,1.49-4.68,7.57,21-5.43,32.66-16.55,2.18-2.07,9.35-8.95,15.94-15.28,11.83-11.37,16.34-13.86,16.34-9,0,3.8-9.2,12.84-22.58,22.2-9.68,6.78-18.4,14.33-17.54,15.19.35.35,3.4-.61,6.77-2.15,10.44-4.73,13.48-3.56,8.2,3.16-2.66,3.38-2.68,3.67-.37,5,2.16,1.21,2,1.5-1.46,2.36-5.47,1.37-7.8-1.21-4.44-4.93,1.41-1.55,2.18-3.21,1.71-3.69-.9-.89-12.47,5.31-16.63,8.92-2.91,2.51-7,1.31-5.8-1.73.89-2.32-1-1.93-7.86,1.63-5,2.59-11.16,2.36-11.16-.42,0-1.75-.84-2-3.83-1.29-2.11.52-4,1.53-4.31,2.24-.77,2.16-4.24,1.45-5.55-1.15Zm68.61.74c-1.26-2,12.74-15,16.19-15s4.76,4.08,2.17,6.95c-1.17,1.29-1.74,2.73-1.28,3.2,1,1,11.31-5.41,14.67-9.08,2.88-3.15,4.34-3.1,6.4.18,1.36,2.18,1.17,3.08-1.06,5.1-3.51,3.18-3.47,5.24.07,4.12,3.36-1.07,3.74,1.42.5,3.23-3,1.7-7.47.45-7.47-2.09,0-2.22-3.27-1.62-10.05,1.83-2.94,1.49-4.54,1.56-7.28.31-2.35-1.07-4.11-1.14-5.3-.22-3.17,2.46-6.56,3.13-7.56,1.51ZM677,517.27c1.4-2.26-1.64-2.95-3.44-.78-1.4,1.69-1.32,2.08.46,2.08a3.81,3.81,0,0,0,3-1.3Zm-286-1.65q-1-1.54-11.25-.74c-8.13.64-10.28.41-10.28-1.09,0-2.75,3.22-3.59,13.79-3.59,9.22,0,12.72,1.42,12.72,5.16,0,2.21-3.66,2.41-5,.26Zm461.81-1.36a2.7,2.7,0,0,1,.62-3.07c2.06-2.06,2-5.27-.11-4.83-.91.19-1.9-.75-2.19-2.09-.34-1.52.29-2.44,1.66-2.44s2.19-1.19,2.19-2.9c0-2,.75-2.74,2.44-2.41,2,.39,2.37,1.71,2,8.12-.61,9.42-3.8,14.1-6.56,9.62Zm53.39-3c-2.08-1.78-3.78-4.66-3.78-6.38s-1.25-6.85-2.78-11.39-2.4-9.22-1.94-10.42.09-2.17-.95-2.17-1.31-.46-.75-1,2.23.54,3.69,2.45l2.67,3.46,0-3.14c0-1.72-.6-3.14-1.37-3.14a1.39,1.39,0,0,1-1.39-1.39c0-.77.88-1.4,1.95-1.4s2.58,2.34,3.35,5.24c.93,3.52,1.43,4.2,1.53,2.09.08-1.73.75-3.14,1.49-3.14,2,0,4,4.5,5.08,11.33.51,3.36,1.45,6.77,2.08,7.58s1.33,4.26,1.55,7.67c.38,5.73.14,6.24-3.14,6.62-2.16.25-5-.85-7.32-2.84Zm-61.33-5.21c-1.34-1.9-2.44-4-2.44-4.59,0-1.49,5.39-7.28,6.06-6.51.28.33.13,3.74-.34,7.57l-.84,7-2.44-3.45Zm78-1.78c-1.5-6.38-4.12-24.85-3.6-25.33a17.67,17.67,0,0,1,3.59-1.42c2.55-.78,3.14-.3,3.63,3l.58,3.9.21-3.84c.32-5.81,2.36-4.6,4,2.36,1.46,6.35,1,8.32-2,9.29-1.32.43-1.23,1.51.38,4.6,1.15,2.23,1.8,4.35,1.44,4.71-1.15,1.15-5.19-1-4.37-2.32.43-.69-.19-1.63-1.38-2.08-2.35-.9-1.7.87,1.82,5,1.11,1.29,1.61,3,1.1,3.84-1.57,2.55-4.6,1.62-5.37-1.66Zm1.78-16.58c-1.51-5.26-3.53-7.58-2.26-2.61a30.74,30.74,0,0,1,.9,5.24c0,1,.6,1.74,1.32,1.74s.8-1.71,0-4.37ZM629.18,501.55c-2.46-2.46-2-3.91,1.12-3.91a2.47,2.47,0,0,1,2.79,2.79C633.09,503.59,631.64,504,629.18,501.55ZM541,484.39c0-1.17,1.24-2.1,2.79-2.1s2.8.93,2.8,2.1-1.25,2.09-2.8,2.09S541,485.55,541,484.39ZM915.62,460c.47-.76,1.14-1.39,1.47-1.39s.62.63.62,1.39a1.45,1.45,0,0,1-1.48,1.4C915.42,461.37,915.14,460.74,915.62,460Zm-66.28-43.71c0-2.07,6.51-6.05,7.79-4.77,1,1-4.44,6.63-6.39,6.63C850,418.12,849.34,417.28,849.34,416.26Zm9.13-53.85a1.61,1.61,0,0,1,.62-2.18c.78-.48,1.42.1,1.42,1.3,0,2.45-.84,2.81-2,.88Zm152.45-3.84a2.78,2.78,0,0,1,2.68.11c.46.46-.36.79-1.83.73-1.63-.07-2-.4-.85-.84ZM736,782.69a11.52,11.52,0,0,0-4.89,0c-1.34.35-.24.64,2.45.64S737.33,783,736,782.69Zm-612.83-1.83c.49-.79-.68-1.4-2.71-1.4s-3.57.63-3.57,1.4,1.22,1.39,2.71,1.39S122.69,781.63,123.16,780.86Zm80-.73c.36-.37-3.49-.67-8.56-.67s-9.54.53-9.95,1.18C183.94,781.84,202,781.34,203.19,780.13Zm223.09,1.17a15.09,15.09,0,0,0-5.58,0c-1.74.33-.65.62,2.42.63s4.49-.25,3.16-.6Zm253.2,0a5.35,5.35,0,0,0-3.49,0c-1,.39-.17.71,1.74.71s2.71-.32,1.75-.71Zm91.73-.47a1.43,1.43,0,0,0-1.48-1.39c-.81,0-1.09.62-.61,1.39s1.14,1.4,1.48,1.4S771.21,781.63,771.21,780.86Zm7,0c0-.77-1.26-1.39-2.79-1.39s-2.79.62-2.79,1.39,1.25,1.4,2.79,1.4S778.19,781.63,778.19,780.86Zm13.47.46c-1.33-1.34-7.89-1.47-7.89-.16,0,.6,2,1.1,4.41,1.1S792.18,781.83,791.66,781.32ZM169.52,780a2.78,2.78,0,0,0-2.68-.11c-1.11.44-.78.77.85.84,1.47.06,2.29-.27,1.83-.73Zm658.26-.65c1.5-2.43-.21-2.94-2.12-.64-1.1,1.33-1.21,2.13-.28,2.13A3.27,3.27,0,0,0,827.78,779.37Zm-233-1.3a3,3,0,0,0-2.18-1.4,1.36,1.36,0,0,0-1.31,1.4c0,.77,1,1.4,2.17,1.4S595.21,778.84,594.74,778.07Zm79.31.35c.83-1.35-8.33-1.34-9.69,0-.56.56,1.24,1,4,1s5.32-.47,5.68-1Zm177.65-2c-.45-1.11-.78-.78-.84.85-.07,1.47.26,2.29.73,1.83A2.84,2.84,0,0,0,851.7,776.41Zm-624-1.24c1.88-1.75-5.87-4.32-8.69-2.88-1.3.66-5.55,1.13-9.46,1.05-6.2-.14-7,.16-6.44,2.37s1.78,2.43,12,1.58c6.22-.52,11.9-1.47,12.6-2.12Zm526.42,2.06a2.78,2.78,0,0,0-2.68-.11c-1.11.44-.78.77.84.84s2.3-.27,1.84-.73Zm-136.36-2c0-.77-.27-1.4-.61-1.4s-1,.63-1.48,1.4-.19,1.39.62,1.39A1.43,1.43,0,0,0,617.74,775.28Zm4.19,0a1.4,1.4,0,1,0-1.39,1.39A1.4,1.4,0,0,0,621.93,775.28Zm160.07.55a2.84,2.84,0,0,0-2.68-.11c-1.11.45-.78.78.85.84,1.47.07,2.29-.26,1.83-.73Zm17.12-.55c0-.77-.91-1.4-2-1.4a3.7,3.7,0,0,0-2.88,1.4c-.47.77.43,1.39,2,1.39S799.12,776.05,799.12,775.28Zm174.37-3.22c0-.62-.61-.74-1.37-.27a4.11,4.11,0,0,0-1.38,3.22c0,2,.21,2.07,1.38.27A8.64,8.64,0,0,0,973.49,772.06ZM96,772.49a1.45,1.45,0,0,0-1.48-1.4c-.81,0-1.09.63-.61,1.4s1.14,1.39,1.47,1.39S96,773.26,96,772.49Zm594.69.47a5.35,5.35,0,0,0-3.49,0c-1,.39-.18.7,1.74.7s2.71-.31,1.75-.7Zm17.41.08a2.84,2.84,0,0,0-2.68-.11c-1.11.45-.78.78.85.85,1.47.06,2.29-.27,1.83-.74Zm49.21-.55c2.64-1.71-6.53-1.76-14.65-.08-5.24,1.08-5,1.16,3.49,1.29,5,.08,10-.47,11.16-1.21Zm-147.19-1.4c-.48-.76-2.36-1.39-4.19-1.39s-3.71.63-4.18,1.39,1.17,1.4,4.18,1.4S610.58,771.93,610.07,771.09Zm158.7.48a5.35,5.35,0,0,0-3.49,0c-1,.38-.18.7,1.74.7s2.71-.32,1.75-.7Zm88.88-9.11a4.28,4.28,0,0,1,1.45-3.22c1.64-1,1.88-3.49.34-3.49-2,0-4.17,4.94-5,11.21l-.85,6.23,2-4.19a21.71,21.71,0,0,0,2.08-6.54Zm-170.49,7.68a15.08,15.08,0,0,0-5.58,0c-1.73.33-.64.62,2.43.63s4.49-.26,3.15-.6Zm97.67,0a37.08,37.08,0,0,0-8.37,0c-2.5.31-.79.57,3.82.58s6.65-.25,4.55-.57Zm-19.9-1.79c-.48-.77,0-1.4,1-1.4s2.66-1.32,3.66-2.93c1.82-2.91,1.82-2.91-2.41-.42-4.81,2.84-6.69,6.14-3.5,6.14C764.83,769.7,765.4,769.07,764.93,768.31ZM978.38,760c1.09-3.09,1.53-5.62,1-5.62-1,0-5.89,12.51-5.81,14.84C973.62,771.08,976.2,766.15,978.38,760ZM856.45,747.73c.65-1.73.94-3.14.62-3.14-.8,0-11.92,20.32-11.91,21.79s9.69-14.45,11.29-18.65Zm-126.34,14.9c1.5-2.43-.21-2.94-2.12-.64-1.1,1.33-1.21,2.13-.28,2.13A3.27,3.27,0,0,0,730.11,762.63Zm120.76-21.18c1.49-2.88,2.07-5.23,1.29-5.23a1.43,1.43,0,0,0-1.43,1.42c0,.78-1.57,3.91-3.49,7s-3.46,6-3.44,6.6C843.87,752.8,847.8,747.38,850.87,741.45ZM983,748c-.43-.43-1.21.34-1.74,1.72-.75,2-.59,2.15.78.78,1-.95,1.39-2.07,1-2.5Zm-149-7.69c1.58-3.09,2.53-6.18,2.11-6.86s-.15-2.85.61-4.83.86-3.61.24-3.61-2.14,3.61-3.37,8-2.65,9.12-3.16,10.46c-1.79,4.65.71,2.42,3.57-3.19Zm22.25-.56c0-.82-1-.26-2.09,1.23a9.5,9.5,0,0,0-2,4.18c0,.81,1,.26,2.1-1.23A9.57,9.57,0,0,0,856.27,739.79ZM867,741.53c-.44-1.11-.77-.78-.84.85-.06,1.47.27,2.29.73,1.83A2.78,2.78,0,0,0,867,741.53Zm48.49,1.7c3.42-1.31,5-4.22,2.27-4.22-3.14,0-8.55,2.91-7.76,4.18C911.09,744.9,911.11,744.9,915.52,743.23Zm-55.46-4.49c-.45-1.11-.78-.78-.84.85-.06,1.47.26,2.29.73,1.83A2.84,2.84,0,0,0,860.06,738.74ZM529.8,737.67c1.13-.72,1.71-1.64,1.3-2.06s-2,.15-3.45,1.27c-2.94,2.23-1.16,2.88,2.15.79Zm9,.49c2.22-.85,3.16-6.13,1.09-6.13-1.74,0-4.47,3.15-4.47,5.16S535.73,739.34,538.8,738.16Zm-25.7-4.78c0-2-.67-1.68-3.62,1.64-2.64,3-2.64,3,.48,1.35,1.73-.91,3.14-2.25,3.14-3Zm346,1.28c0-.77-.63-1-1.4-.54a3.05,3.05,0,0,0-1.39,2.26c0,.77.62,1,1.39.53A3,3,0,0,0,859.11,734.66Zm-9.17-13.22c3.33-7.71,3.82-11.3.78-5.76-1.73,3.17-3.52,4.89-4.47,4.31s-1.26-.16-.63,1.47-.14,3.82-1.86,6c-1.53,1.95-2.77,4.25-2.74,5.11.07,2.25,6.73-6.05,8.92-11.13Zm-128.7,5.36c9.15-3.27,16.94-7.08,20.67-10.12l6-4.88-5.44-1c-12.51-2.22-15-1.57-25.17,6.42-8.84,7-14.44,12.44-14.44,14.1s4.41.43,18.39-4.55Zm52.12,2.35a2,2,0,0,0,.15-2.26c-1.19-1.19-7.88.83-7.88,2.38,0,1.85,6.57,1.74,7.73-.12Zm70.3-10.37c0-.77-.91-.18-2,1.31a9.84,9.84,0,0,0-2,4.88C839.68,727.34,843.66,721.24,843.66,718.78Zm147.7-1.6c-.41-1.92-.76-1.57-1.35,1.35-.52,2.55-.33,3.47.55,2.59A4.85,4.85,0,0,0,991.36,717.18Zm-114.84-9a85,85,0,0,0,4.91-9.08c0-1.75-2.81,1.3-4.72,5.12-1.16,2.32-3.51,6.5-5.24,9.29s-2.4,4.62-1.5,4.06,3.84-4.78,6.55-9.39Zm-15.27-1.95c.94-2.3,2.17-5.76,2.73-7.67,1.85-6.31-2.16-.87-5.61,7.62-2.41,5.92-2.66,7.4-1,6A18.25,18.25,0,0,0,861.25,706.22Zm-3.66-3.49c-.05-1.38-.48-1.14-1.28.7-1.64,3.83-1.64,6,0,3.49A8.6,8.6,0,0,0,857.59,702.73Zm28.68,1.47c3.07-5.94,2.61-7.16-.66-1.78-2.85,4.67-3.29,5.89-2.13,5.89.37,0,1.62-1.85,2.79-4.11ZM1010.81,686c-.25-1.16-1.83,1.93-3.53,6.88-4.1,12-3.81,14,.51,3.58C1009.69,691.88,1011.05,687.17,1010.81,686Zm-148.94,4.43c0-1-.6-1.44-1.37-1s-1.39,2.24-1.38,3.92c0,2.48.28,2.66,1.38,1A9,9,0,0,0,861.87,690.44Zm17.84.35c-.47-.47-1.6.61-2.52,2.41-1.6,3.11-1.56,3.15.85.85C879.43,692.72,880.18,691.25,879.71,690.79Zm8.69.62c0-.77-.63-1-1.39-.54a3.06,3.06,0,0,0-1.4,2.26c0,.77.63,1,1.4.53A3.06,3.06,0,0,0,888.4,691.41ZM867.22,689c.25-1.67-.22-3-1-3a1.41,1.41,0,0,0-1.5,1.28,13.62,13.62,0,0,1-.92,3.68c-.64,1.68-.33,2.2,1,1.75,1.08-.36,2.17-2,2.41-3.68Zm31-5.47c4.16-6.89,9.67-17.08,9.67-17.86,0-.35-.5-.63-1.11-.63-1.32,0-12.84,19.88-12.84,22.16,0,2.63,1,1.78,4.28-3.67Zm-2.33-9.29c-1-2.56-2.72-1.81-4.78,2-1,1.87-1,2.71,0,2.71.8,0,1.45-.94,1.45-2.09s.57-2.09,1.26-2.09,1,1.41.6,3.14c-.56,2.66-.43,2.78.83.82a5.7,5.7,0,0,0,.65-4.53Zm94.32,3.36c0-.77.94-1.4,2.09-1.4a2.13,2.13,0,0,0,2.1-2.14c0-1.66-.59-1.83-2.63-.73-2.92,1.56-5,5.66-2.91,5.66a1.37,1.37,0,0,0,1.35-1.39ZM882.8,673c0-.62-.61-.74-1.37-.26a4.08,4.08,0,0,0-1.38,3.22c0,2,.21,2.07,1.38.26A8.64,8.64,0,0,0,882.8,673Zm123.36-24.68c1.09-5,2.39-10.32,2.89-11.86s-.36-.59-1.91,2.09-2.85,5.93-2.88,7.21-1.26,5.13-2.73,8.56a59,59,0,0,0-3.48,14.41l-.81,8.19,3.46-9.76a188.9,188.9,0,0,0,5.46-18.84Zm-106-7.57c3.56-6.09,4.77-9.6,2.41-7s-9.08,15.07-7.58,14.14c.85-.53,3.18-3.74,5.17-7.13ZM921.39,633a105.35,105.35,0,0,1,5.5-9.07,36,36,0,0,0,3.85-7c.77-2.27.42-2.14-1.89.7-3.39,4.15-12.55,20-12.55,21.69s2.24-1,5.09-6.35Zm-9.75-13.19a3.68,3.68,0,0,0-3.18-2.15c-2.15,0-2.13.24.18,2.8,2.77,3.06,4.3,2.73,3-.65ZM916,613.7c.34-1-.93-1.65-3.22-1.65-3.23,0-3.52.3-2,2.14,1.94,2.34,4.36,2.11,5.22-.49Zm24.32-19.8c3.06-5.37,2.16-5.37-1.67,0-1.64,2.3-2.47,4.18-1.84,4.18s2.21-1.89,3.52-4.19Zm17.16-18.13c.47-.77.2-1.39-.61-1.39a1.43,1.43,0,0,0-1.48,1.39c0,.77.28,1.4.61,1.4S957,576.54,957.46,575.77Zm-17.76-6.71c.84-2.51-2.05-2-3,.55-.52,1.36-.21,2,.81,1.66A4,4,0,0,0,939.7,569.06Zm29.62-21.46c0-1.83-3.17-.68-3.87,1.4-.34,1,.3,1.33,1.66.81s2.21-1.46,2.21-2.21Zm-14.05-7.14c.05-.62-.53-.74-1.3-.27s-1.35,2.24-1.3,3.92c.1,2.95.15,3,1.3.27A19.41,19.41,0,0,0,955.27,540.46Zm75.84.43c.46-1.74,0-2.79-1.1-2.79s-1.56,1-1.1,2.79c.4,1.54.89,2.79,1.1,2.79A6.89,6.89,0,0,0,1031.11,540.89ZM961,531.82c1.42-1.71,1.32-2.09-.53-2.09a2.19,2.19,0,0,0-2.26,2.09c0,1.15.23,2.1.52,2.1A7.5,7.5,0,0,0,961,531.82ZM994.39,528c0-.6-1.53-.05-3.45,1.2s-3.48,2.87-3.48,3.59C987.46,534.28,994.32,529.53,994.39,528Zm-6.13-4.87c-.86-.85-7.78,4-7.78,5.45,0,.7,1.88-.11,4.17-1.81s3.91-3.33,3.61-3.64Zm13.2-4.51c3.13-2.71,3.85-3.85,2-3.25-3.14,1-10.16,7.43-8.16,7.43.71,0,3.46-1.88,6.12-4.18Zm2.37-11.77c4.95-4.59,3.65-5.5-1.72-1.21-2.69,2.15-4.89,4.41-4.89,5C997.22,512,999.77,510.57,1003.83,506.81Zm27.66-7c1.49-1.13,2-2.07,1.23-2.09s-2.7.87-4.19,2-2,2.07-1.23,2.09,2.7-.87,4.19-2Zm2-6.33a105.94,105.94,0,0,1,9.42-6.34c3.81-2.21,6-4.81,4-4.81s-23.18,14.71-23.18,16.16c0,1.14,5.24-1.55,9.77-5Zm3.49,2.8c.47-.77.19-1.4-.62-1.4a1.45,1.45,0,0,0-1.48,1.4c0,.76.28,1.39.62,1.39S1036.51,497,1037,496.25Zm-21.63-2.79c0-.77-.28-1.4-.61-1.4s-1,.63-1.48,1.4-.2,1.39.61,1.39A1.44,1.44,0,0,0,1015.36,493.46Zm29.21-2c1.35-1.62,1.13-1.84-1.25-1.22-3.49.91-5.21,3.21-2.4,3.21a5.67,5.67,0,0,0,3.65-2Zm-19.44-6.73c0-.77-.93-.62-2.09.35a5.52,5.52,0,0,0-2.1,3.13c0,.78.93.62,2.1-.34A5.59,5.59,0,0,0,1025.13,484.74Zm-4.19-4c0-.77-.62-1-1.39-.54a3.06,3.06,0,0,0-1.4,2.26c0,.77.63,1,1.4.53A3,3,0,0,0,1020.94,480.74ZM1040.6,473c1.71-2.11,1.7-2.27-.12-1.23-5.33,3-9.77,6.63-9.77,7.9C1030.71,481.31,1037.7,476.6,1040.6,473Zm7.55,2.55c-.7-.73-6.28,3.12-6.28,4.34,0,.61,1.51,0,3.35-1.39s3.16-2.7,2.93-2.95Zm-53.74-4.26c0-1.81-.26-1.89-1.22-.37s-1.31,1.61-1.9,0c-.38-1-.61-.23-.51,1.82.12,2.8.6,3.36,1.91,2.27a5.39,5.39,0,0,0,1.72-3.72ZM1033.5,469c0-.56-1.25.58-2.79,2.53s-2.79,4-2.79,4.57,1.26-.59,2.79-2.54S1033.5,469.54,1033.5,469Zm16.09-.36c-.94-.94-4.93,2.54-4.93,4.3,0,.79,1.26.3,2.8-1.1S1050,469,1049.59,468.62Zm-23.76-.28c.47-.76.19-1.39-.62-1.39a1.44,1.44,0,0,0-1.47,1.39c0,.77.27,1.4.61,1.4S1025.35,469.11,1025.83,468.34Zm23.85-3.81c-.83-.83-5,1.33-5,2.58,0,.69,1.23.49,2.73-.45s2.53-1.89,2.29-2.13Zm-30.6-2.12c-.39-1-.71-.17-.71,1.75s.32,2.7.71,1.74A5.48,5.48,0,0,0,1019.08,462.41Zm20-1.33c0-1.69-3.91.36-4.72,2.47-.62,1.62-.28,1.66,2,.25,1.51-.94,2.74-2.17,2.74-2.72Zm11.16-3.2c1.3-1.56,1.32-2.09.09-2.09-.91,0-1.26-.63-.79-1.4s.24-1.39-.53-1.39a3.05,3.05,0,0,0-2.26,1.39c-.47.77-.12,1.4.79,1.4,1.23,0,1.21.53-.09,2.09-1,1.17-1.12,2.09-.34,2.09A5.55,5.55,0,0,0,1050.24,457.88Zm-16.69-4.19c1.89-2.58,1.86-2.64-.4-.87-1.34,1.05-2.44,2.57-2.44,3.37s.18,1.2.39.88S1032.42,455.23,1033.55,453.69Zm47.39,2.1c0-.77-.28-1.4-.62-1.4s-1,.63-1.48,1.4-.19,1.39.62,1.39A1.45,1.45,0,0,0,1080.94,455.79Zm-3.24-4.45c-.44-1.11-.77-.78-.84.84-.06,1.47.27,2.3.73,1.83A2.76,2.76,0,0,0,1077.7,451.34Zm23.3.89c.48-1.25.24-1.81-.55-1.32a3,3,0,0,0-1.38,2.17C1099.07,455.09,1100.07,454.64,1101,452.23Zm-47.67-4.89,1.26-3.41-2.87,3.08c-3.2,3.43-3.69,5.1-1.26,4.29.88-.3,2.18-2.08,2.87-4Zm-27.5,1.47c.47-.77.23-1.39-.54-1.39a3,3,0,0,0-2.25,1.39c-.48.77-.24,1.4.53,1.4A3.06,3.06,0,0,0,1025.83,448.81Zm13.25-5.74c0-.77-.63-1-1.39-.54a3.06,3.06,0,0,0-1.4,2.26c0,.77.63,1,1.4.53A3.06,3.06,0,0,0,1039.08,443.07Zm39.07-1.4c0-.77-.63-1-1.4-.53a3,3,0,0,0-1.39,2.25c0,.77.62,1,1.39.54A3.06,3.06,0,0,0,1078.15,441.67Zm-20.93-9.07c0-1.15-.63-1.7-1.4-1.23a3.83,3.83,0,0,0-1.39,3c0,1.15.63,1.7,1.39,1.23A3.81,3.81,0,0,0,1057.22,432.6Zm-8.39-14.91c0-.62-.61-.74-1.38-.27a4.11,4.11,0,0,0-1.37,3.22c0,2,.21,2.07,1.37.27A8.7,8.7,0,0,0,1048.83,417.69Zm60.54,1.05c.48-1.24.24-1.8-.55-1.31a3,3,0,0,0-1.38,2.16C1107.44,421.6,1108.44,421.16,1109.37,418.74Zm15.94-2.75c-.43-.43-1.21.34-1.73,1.72-.76,2-.6,2.15.78.78,1-.95,1.38-2.07,1-2.5Zm-3.91-10.59c0-.77-.63-1-1.4-.54a3.05,3.05,0,0,0-1.39,2.26c0,.77.62,1,1.39.53A3,3,0,0,0,1121.4,405.4Zm-26.53-3.06c0-.62-.61-.74-1.38-.27a4.14,4.14,0,0,0-1.37,3.22c0,2,.21,2.07,1.37.27A8.53,8.53,0,0,0,1094.87,402.34Zm11.93-1.06c1.51-2.43-.2-2.94-2.12-.64-1.1,1.33-1.21,2.13-.28,2.13A3.23,3.23,0,0,0,1106.8,401.28Zm-41.21-13.86c0-.76-.28-1.39-.62-1.39s-1,.63-1.47,1.39-.2,1.4.61,1.4A1.45,1.45,0,0,0,1065.59,387.42Zm7-2.09c1.43-1.71,1.33-2.09-.52-2.09a2.19,2.19,0,0,0-2.27,2.09c0,1.15.24,2.09.53,2.09A7.3,7.3,0,0,0,1072.56,385.33ZM338,349.75c.47-.76-.43-1.39-2-1.39s-2.87.63-2.87,1.39.9,1.4,2,1.4A3.7,3.7,0,0,0,338,349.75Zm508.3,502.67a10.17,10.17,0,0,1-5.41-2.58c-1.42-1.72-.13-2,9-2,8.13,0,10.64.45,10.64,1.93,0,1.06-1.42,2.31-3.14,2.77-3.25.87-4.75.85-11.06-.11Z"/></g></svg>